<svg width="32" height="32" viewBox="0 0 32 32" fill="none" xmlns="http://www.w3.org/2000/svg">
<path d="M16 16.25C16 16.25 9.25 23.0538 9.25 26.6322C9.25 29.5988 12.2723 32 16 32C19.7277 32 22.75 29.5988 22.75 26.6322C22.75 23.0538 16 16.25 16 16.25Z" fill="#912B32"/>
<path d="M16 15.75C16 15.75 9.25 8.94625 9.25 5.36775C9.25 2.40125 12.2723 0 16 0C19.7277 0 22.75 2.40125 22.75 5.36775C22.75 8.94625 16 15.75 16 15.75Z" fill="#912B32"/>
<path d="M16.25 16C16.25 16 23.0538 22.75 26.6322 22.75C29.5988 22.75 32 19.7277 32 16C32 12.2723 29.5988 9.25 26.6322 9.25C23.0538 9.25 16.25 16 16.25 16Z" fill="#912B32"/>
<path d="M15.75 16C15.75 16 8.94625 22.75 5.36775 22.75C2.40125 22.75 0 19.7277 0 16C0 12.2723 2.40125 9.25 5.36775 9.25C8.94625 9.25 15.75 16 15.75 16Z" fill="#912B32"/>
</svg>
