<svg width="120" height="120" viewBox="0 0 120 120" fill="none" xmlns="http://www.w3.org/2000/svg">
<path d="M60.0066 12.1169C50.5386 12.1169 41.2834 14.9257 33.4103 20.1881C25.538 25.4505 19.4022 32.9302 15.7788 41.6812C12.1554 50.4322 11.2076 60.0616 13.0545 69.3517C14.9022 78.6421 19.4614 87.1756 26.1563 93.8728C32.8512 100.571 41.381 105.132 50.6674 106.98C59.9539 108.828 69.5795 107.879 78.3268 104.255C87.0741 100.629 94.5505 94.4915 99.8112 86.6156C105.071 78.7396 107.879 69.4806 107.879 60.0085C107.864 47.3114 102.816 35.1383 93.841 26.1601C84.8665 17.1818 72.6989 12.1314 60.0066 12.1169Z" fill="#E3E4E4" stroke="#939494" stroke-miterlimit="10"/>
<path d="M46.3312 8.92055L44.4931 2.0593C54.653 -0.686434 65.3601 -0.686434 75.5208 2.0593L73.6826 8.92055C69.2114 7.70263 64.5994 7.08426 59.9657 7.08175C55.3601 7.09912 50.7769 7.71734 46.3312 8.92055ZM22.628 22.6431L17.608 17.6481C10.162 25.0623 4.80535 34.3121 2.0802 44.4619L8.93825 46.3008C11.3474 37.3296 16.0675 29.1482 22.628 22.5744V22.6431ZM111.061 46.3693L117.919 44.5305C115.204 34.3495 109.841 25.0696 102.378 17.6343L97.3715 22.6568C103.929 29.2004 108.65 37.3546 111.061 46.3008V46.3693ZM97.3987 97.4311L102.419 102.453C109.891 94.9938 115.249 85.684 117.946 75.4751L111.088 73.636C108.697 82.634 103.974 90.8421 97.3987 97.4311ZM8.93825 73.6772L2.0802 75.5162C4.78535 85.6992 10.138 94.9839 17.5936 102.425L22.6008 97.4311C16.0363 90.8543 11.3234 82.6599 8.93825 73.6772ZM60.0065 112.951C55.3721 112.938 50.7593 112.311 46.2896 111.085L44.4379 117.946C54.613 120.685 65.3312 120.685 75.5071 117.946L73.6691 111.085C69.2162 112.305 64.6225 112.932 60.0065 112.951Z" fill="black"/>
<path d="M22.6279 22.6008L17.6079 17.5783C25.0386 10.1131 34.3155 4.75288 44.493 2.04443L46.3311 8.90566C37.331 11.2415 29.1364 15.9854 22.6279 22.6282V22.6008ZM8.91096 46.2996L2.05286 44.4608C-0.684286 54.631 -0.684286 65.3445 2.05286 75.5147L8.91096 73.676C6.51536 64.7074 6.52011 55.2659 8.92451 46.2996H8.91096ZM97.3714 22.5871L102.378 17.5646C94.9518 10.1164 85.6845 4.77062 75.5206 2.07188L73.6825 8.93317C82.6466 11.3177 90.8237 16.0277 97.385 22.5871H97.3714ZM111.088 73.6897L117.947 75.5284C120.684 65.3537 120.684 54.6356 117.947 44.4608L111.088 46.2996C113.489 55.2717 113.489 64.7176 111.088 73.6897ZM22.6006 97.4296L17.5799 102.452C25.0178 109.915 34.2915 115.283 44.465 118.013L46.3175 111.152C37.3454 108.738 29.1659 104.006 22.6006 97.4296ZM86.4668 105.883C82.4587 108.192 78.165 109.963 73.6961 111.152L75.5342 118.013C85.7093 115.301 94.9862 109.942 102.419 102.48L97.3986 97.4296C94.1407 100.707 90.4645 103.539 86.4668 105.856V105.883Z" fill="#A2202F"/>
<path d="M60.0067 58.4858C60.0067 58.4858 46.0155 44.1045 46.0155 36.5297C46.1291 32.8951 47.6529 29.4475 50.2628 26.9168C52.8728 24.3861 56.365 22.9709 60.0004 22.9709C63.635 22.9709 67.1272 24.3861 69.7372 26.9168C72.3471 29.4475 73.8709 32.8951 73.9844 36.5297C73.9844 44.1045 60.0067 58.4858 60.0067 58.4858ZM46.0155 84.2567C46.1291 87.8911 47.6529 91.3388 50.2628 93.8698C52.8728 96.4001 56.365 97.8158 60.0004 97.8158C63.635 97.8158 67.1272 96.4001 69.7372 93.8698C72.3471 91.3388 73.8709 87.8911 73.9844 84.2567C73.9844 76.6681 60.0067 62.3006 60.0067 62.3006C60.0067 62.3006 46.0155 76.6681 46.0155 84.2567ZM83.8604 46.3962C76.2752 46.3962 61.9137 60.3931 61.9137 60.3931C61.9137 60.3931 76.3024 74.3627 83.8604 74.3627C87.5677 74.3627 91.1232 72.8894 93.7443 70.2671C96.3655 67.6447 97.8381 64.088 97.8381 60.3794C97.8381 56.6709 96.3655 53.1142 93.7443 50.4918C91.1232 47.8694 87.5677 46.3962 83.8604 46.3962ZM36.1396 46.3962C32.4322 46.3962 28.8768 47.8694 26.2556 50.4918C23.6344 53.1142 22.1619 56.6709 22.1619 60.3794C22.1619 64.088 23.6344 67.6447 26.2556 70.2671C28.8768 72.8894 32.4322 74.3627 36.1396 74.3627C43.7247 74.3627 58.0863 60.3931 58.0863 60.3931C58.0863 60.3931 43.7247 46.3962 36.1124 46.3962H36.1396Z" fill="#A2202F"/>
</svg>
