<svg width="120" height="120" viewBox="0 0 120 120" fill="none" xmlns="http://www.w3.org/2000/svg">
<path d="M60.0067 12.1169C50.5387 12.1169 41.2835 14.9257 33.4104 20.1881C25.5381 25.4505 19.4024 32.9302 15.779 41.6812C12.1556 50.4322 11.2077 60.0616 13.0546 69.3517C14.9023 78.6421 19.4616 87.1756 26.1564 93.8728C32.8513 100.571 41.3811 105.132 50.6675 106.98C59.954 108.828 69.5796 107.879 78.3269 104.255C87.0743 100.629 94.5506 94.4915 99.8113 86.6156C105.071 78.7396 107.879 69.4806 107.879 60.0085C107.864 47.3114 102.816 35.1383 93.8411 26.1601C84.8666 17.1818 72.699 12.1314 60.0067 12.1169Z" fill="#E3E4E4" stroke="#939494" stroke-miterlimit="10"/>
<path d="M46.3314 8.92055L44.4932 2.0593C54.6531 -0.686434 65.3602 -0.686434 75.5209 2.0593L73.6827 8.92055C69.2115 7.70263 64.5995 7.08426 59.9659 7.08175C55.3602 7.09912 50.777 7.71734 46.3314 8.92055ZM22.6281 22.6431L17.6081 17.6481C10.1622 25.0623 4.80547 34.3121 2.08032 44.4619L8.93837 46.3008C11.3476 37.3296 16.0676 29.1482 22.6281 22.5744V22.6431ZM111.061 46.3693L117.919 44.5305C115.204 34.3495 109.842 25.0696 102.378 17.6343L97.3716 22.6568C103.929 29.2004 108.65 37.3546 111.061 46.3008V46.3693ZM97.3988 97.4311L102.42 102.453C109.891 94.9938 115.249 85.684 117.947 75.4751L111.089 73.636C108.697 82.634 103.975 90.8421 97.3988 97.4311ZM8.93837 73.6772L2.08032 75.5162C4.78547 85.6992 10.1382 94.9839 17.5937 102.425L22.6009 97.4311C16.0364 90.8543 11.3236 82.6599 8.93837 73.6772ZM60.0066 112.951C55.3722 112.938 50.7594 112.311 46.2897 111.085L44.4381 117.946C54.6132 120.685 65.3314 120.685 75.5073 117.946L73.6692 111.085C69.2163 112.305 64.6227 112.932 60.0066 112.951Z" fill="black"/>
<path d="M22.6279 22.6008L17.6079 17.5783C25.0386 10.1131 34.3155 4.75288 44.493 2.04443L46.3311 8.90566C37.331 11.2415 29.1364 15.9854 22.6279 22.6282V22.6008ZM8.91096 46.2996L2.05286 44.4608C-0.684286 54.631 -0.684286 65.3445 2.05286 75.5147L8.91096 73.676C6.51536 64.7074 6.52011 55.2659 8.92451 46.2996H8.91096ZM97.3714 22.5871L102.378 17.5646C94.9518 10.1164 85.6845 4.77062 75.5206 2.07188L73.6825 8.93317C82.6466 11.3177 90.8237 16.0277 97.385 22.5871H97.3714ZM111.088 73.6897L117.947 75.5284C120.684 65.3537 120.684 54.6356 117.947 44.4608L111.088 46.2996C113.489 55.2717 113.489 64.7176 111.088 73.6897ZM22.6006 97.4296L17.5799 102.452C25.0178 109.915 34.2915 115.283 44.465 118.013L46.3175 111.152C37.3454 108.738 29.1659 104.006 22.6006 97.4296ZM86.4668 105.883C82.4587 108.192 78.165 109.963 73.6961 111.152L75.5342 118.013C85.7093 115.301 94.9862 109.942 102.419 102.48L97.3986 97.4296C94.1407 100.707 90.4645 103.539 86.4668 105.856V105.883Z" fill="#A2202F"/>
<path d="M60.0069 58.4855C60.0069 58.4855 46.0156 44.1043 46.0156 36.5294C46.1292 32.8949 47.653 29.4473 50.2629 26.9166C52.8729 24.3858 56.3651 22.9707 60.0005 22.9707C63.6351 22.9707 67.1273 24.3858 69.7373 26.9166C72.3473 29.4473 73.871 32.8949 73.9846 36.5294C73.9846 44.1043 60.0069 58.4855 60.0069 58.4855ZM46.0156 84.2565C46.1292 87.8908 47.653 91.3385 50.2629 93.8696C52.8729 96.3999 56.3651 97.8155 60.0005 97.8155C63.6351 97.8155 67.1273 96.3999 69.7373 93.8696C72.3473 91.3385 73.871 87.8908 73.9846 84.2565C73.9846 76.6678 60.0069 62.3003 60.0069 62.3003C60.0069 62.3003 46.0156 76.6678 46.0156 84.2565ZM83.8605 46.3959C76.2754 46.3959 61.9138 60.3929 61.9138 60.3929C61.9138 60.3929 76.3025 74.3624 83.8605 74.3624C87.5679 74.3624 91.1233 72.8892 93.7445 70.2668C96.3656 67.6445 97.8382 64.0878 97.8382 60.3792C97.8382 56.6706 96.3656 53.1139 93.7445 50.4916C91.1233 47.8692 87.5679 46.3959 83.8605 46.3959ZM36.1397 46.3959C32.4323 46.3959 28.8769 47.8692 26.2557 50.4916C23.6346 53.1139 22.162 56.6706 22.162 60.3792C22.162 64.0878 23.6346 67.6445 26.2557 70.2668C28.8769 72.8892 32.4323 74.3624 36.1397 74.3624C43.7248 74.3624 58.0864 60.3929 58.0864 60.3929C58.0864 60.3929 43.7248 46.3959 36.1125 46.3959H36.1397Z" fill="#A2202F"/>
</svg>
