<svg width="100" height="14" viewBox="0 0 100 14" fill="none" xmlns="http://www.w3.org/2000/svg">
<path d="M0 13.724V0.231304H12.1707V13.724H9.0994V2.06246L9.80523 2.77565H2.36547L3.07129 2.06246V13.724H0ZM21.8714 13.9553C20.8159 13.9553 19.8367 13.7819 18.9337 13.4349C18.0435 13.0879 17.2677 12.5997 16.6063 11.97C15.9578 11.3404 15.4491 10.6014 15.0802 9.75333C14.7242 8.90522 14.5461 7.98 14.5461 6.97768C14.5461 5.97536 14.7242 5.05015 15.0802 4.20203C15.4491 3.35391 15.9642 2.61503 16.6254 1.98536C17.2868 1.3557 18.0626 0.867391 18.9527 0.520434C19.843 0.173478 20.8096 0 21.8523 0C22.908 0 23.8744 0.173478 24.7519 0.520434C25.6422 0.867391 26.4116 1.3557 27.0602 1.98536C27.7215 2.61503 28.2366 3.35391 28.6053 4.20203C28.9742 5.03729 29.1586 5.96251 29.1586 6.97768C29.1586 7.98 28.9742 8.91164 28.6053 9.77261C28.2366 10.6207 27.7215 11.3597 27.0602 11.9892C26.4116 12.6061 25.6422 13.0879 24.7519 13.4349C23.8744 13.7819 22.9143 13.9553 21.8714 13.9553ZM21.8523 11.2953C22.4501 11.2953 22.9969 11.1926 23.4929 10.9869C24.0016 10.7814 24.4467 10.4858 24.8282 10.1003C25.2098 9.71478 25.5023 9.2586 25.7057 8.73174C25.922 8.20488 26.03 7.62019 26.03 6.97768C26.03 6.33517 25.922 5.75048 25.7057 5.22362C25.5023 4.69677 25.2098 4.24058 24.8282 3.85507C24.4595 3.46957 24.0207 3.17401 23.512 2.96841C23.0033 2.7628 22.4501 2.66 21.8523 2.66C21.2546 2.66 20.7014 2.7628 20.1927 2.96841C19.6967 3.17401 19.258 3.46957 18.8764 3.85507C18.4949 4.24058 18.1961 4.69677 17.9798 5.22362C17.7764 5.75048 17.6746 6.33517 17.6746 6.97768C17.6746 7.60735 17.7764 8.19203 17.9798 8.73174C18.1961 9.2586 18.4886 9.71478 18.8574 10.1003C19.2389 10.4858 19.6841 10.7814 20.1927 10.9869C20.7014 11.1926 21.2546 11.2953 21.8523 11.2953ZM40.1808 13.724L36.0222 7.22826L38.5212 5.70551L43.6909 13.724H40.1808ZM31.5011 13.724V0.231304H34.5724V13.724H31.5011ZM33.6758 8.28841V5.68623H38.3304V8.28841H33.6758ZM38.8074 7.32464L35.965 6.97768L40.2953 0.231304H43.5574L38.8074 7.32464ZM47.9809 5.66696H54.4097V8.09565H47.9809V5.66696ZM48.2099 11.2182H55.4779V13.724H45.1386V0.231304H55.2299V2.7371H48.2099V11.2182ZM57.9741 13.724V0.231304H63.7542C64.9496 0.231304 65.9797 0.430482 66.8446 0.82884C67.7094 1.21435 68.377 1.77333 68.8476 2.5058C69.3181 3.23826 69.5534 4.11207 69.5534 5.12725C69.5534 6.12957 69.3181 6.99696 68.8476 7.72942C68.377 8.46188 67.7094 9.02729 66.8446 9.42565C65.9797 9.81116 64.9496 10.0039 63.7542 10.0039H59.691L61.0645 8.59681V13.724H57.9741ZM61.0645 8.94377L59.691 7.45956H63.5826C64.5364 7.45956 65.2485 7.25396 65.7191 6.84275C66.1896 6.43155 66.4249 5.85971 66.4249 5.12725C66.4249 4.38193 66.1896 3.80367 65.7191 3.39246C65.2485 2.98126 64.5364 2.77565 63.5826 2.77565H59.691L61.0645 1.29145V8.94377ZM78.1689 13.9553C77.1134 13.9553 76.1341 13.7819 75.2311 13.4349C74.3409 13.0879 73.5652 12.5997 72.9038 11.97C72.2552 11.3404 71.7465 10.6014 71.3777 9.75333C71.0216 8.90522 70.8436 7.98 70.8436 6.97768C70.8436 5.97536 71.0216 5.05015 71.3777 4.20203C71.7465 3.35391 72.2616 2.61503 72.9229 1.98536C73.5843 1.3557 74.36 0.867391 75.2502 0.520434C76.1405 0.173478 77.1069 0 78.1498 0C79.2053 0 80.1719 0.173478 81.0494 0.520434C81.9397 0.867391 82.7091 1.3557 83.3577 1.98536C84.019 2.61503 84.5341 3.35391 84.9028 4.20203C85.2716 5.03729 85.456 5.96251 85.456 6.97768C85.456 7.98 85.2716 8.91164 84.9028 9.77261C84.5341 10.6207 84.019 11.3597 83.3577 11.9892C82.7091 12.6061 81.9397 13.0879 81.0494 13.4349C80.1719 13.7819 79.2118 13.9553 78.1689 13.9553ZM78.1498 11.2953C78.7475 11.2953 79.2944 11.1926 79.7904 10.9869C80.2991 10.7814 80.7442 10.4858 81.1257 10.1003C81.5072 9.71478 81.7997 9.2586 82.0032 8.73174C82.2194 8.20488 82.3275 7.62019 82.3275 6.97768C82.3275 6.33517 82.2194 5.75048 82.0032 5.22362C81.7997 4.69677 81.5072 4.24058 81.1257 3.85507C80.7569 3.46957 80.3182 3.17401 79.8095 2.96841C79.3007 2.7628 78.7475 2.66 78.1498 2.66C77.5521 2.66 76.9989 2.7628 76.4902 2.96841C75.9942 3.17401 75.5554 3.46957 75.1739 3.85507C74.7924 4.24058 74.4935 4.69677 74.2773 5.22362C74.0738 5.75048 73.9721 6.33517 73.9721 6.97768C73.9721 7.60735 74.0738 8.19203 74.2773 8.73174C74.4935 9.2586 74.7861 9.71478 75.1548 10.1003C75.5364 10.4858 75.9814 10.7814 76.4902 10.9869C76.9989 11.1926 77.5521 11.2953 78.1498 11.2953ZM96.4782 13.724L92.3196 7.22826L94.8186 5.70551L99.9883 13.724H96.4782ZM87.7985 13.724V0.231304H90.8698V13.724H87.7985ZM89.9732 8.28841V5.68623H94.6278V8.28841H89.9732ZM95.1047 7.32464L92.2624 6.97768L96.5927 0.231304H99.8547L95.1047 7.32464Z" fill="white"/>
</svg>
