<svg width="644" height="132" viewBox="0 0 644 132" fill="none" xmlns="http://www.w3.org/2000/svg">
<circle cx="66" cy="66" r="66" fill="#F5F5F5"/>
<path d="M132 66C132 74.6673 130.293 83.2496 126.976 91.2571C123.659 99.2646 118.798 106.54 112.669 112.669C106.54 118.798 99.2646 123.659 91.2571 126.976C83.2496 130.293 74.6672 132 66 132C48.4957 132 31.7084 125.046 19.331 112.669C6.95355 100.292 0 83.5043 0 66C0 48.4957 6.95355 31.7084 19.331 19.331C31.7084 6.95355 48.4957 0 66 0C74.6672 0 83.2496 1.70714 91.2571 5.02395C99.2646 8.34076 106.54 13.2023 112.669 19.331C118.798 25.4596 123.659 32.7354 126.976 40.7429C130.293 48.7504 132 57.3328 132 66ZM79.9131 12.8559L81.6786 5.94949C81.6936 5.89159 81.6721 5.85515 81.6143 5.84018C71.1588 3.06185 60.7763 3.06584 50.4666 5.85216C50.4607 5.85372 50.4552 5.85644 50.4503 5.86015C50.4455 5.86386 50.4414 5.86849 50.4383 5.87377C50.4353 5.87906 50.4333 5.8849 50.4325 5.89095C50.4317 5.89701 50.4321 5.90316 50.4337 5.90906L52.2322 12.8589C52.2471 12.9148 52.2831 12.9352 52.34 12.9203C61.5505 10.4434 70.7146 10.4379 79.8322 12.9038C79.8406 12.9062 79.8493 12.9069 79.858 12.9058C79.8666 12.9047 79.8749 12.9018 79.8825 12.8973C79.89 12.8928 79.8967 12.8869 79.9019 12.8797C79.9072 12.8726 79.911 12.8645 79.9131 12.8559ZM114.497 42.0687C115.778 44.8091 116.92 47.9583 117.924 51.5164C117.928 51.5312 117.938 51.5437 117.951 51.5513C117.964 51.5588 117.98 51.5608 117.994 51.5568L124.655 49.7269C124.715 49.7109 124.737 49.673 124.721 49.6131C121.919 38.977 116.811 29.7914 109.394 22.0564C109.388 22.0503 109.381 22.0454 109.373 22.042C109.366 22.0386 109.357 22.0368 109.349 22.0367C109.34 22.0365 109.332 22.0381 109.324 22.0412C109.316 22.0443 109.309 22.049 109.303 22.0549L104.365 26.8244C104.35 26.8399 104.34 26.8609 104.339 26.8831C104.338 26.9053 104.345 26.9271 104.359 26.9442C106.024 28.9778 107.617 30.9879 109.138 32.9745C111.038 35.4544 112.824 38.4858 114.497 42.0687ZM14.1437 51.5224C16.8272 42.2709 21.8378 34.1036 28.217 26.9711C28.2288 26.958 28.2349 26.9407 28.2341 26.9231C28.2333 26.9054 28.2255 26.8888 28.2126 26.8768L23.1361 22.2511C23.0992 22.2181 23.0632 22.2186 23.0283 22.2526C16.9735 28.1247 12.4556 35.0755 9.47457 43.105C8.6809 45.2434 7.99805 47.4282 7.42601 49.6595C7.41703 49.6944 7.43 49.7164 7.46495 49.7254L14.0898 51.5523C14.0953 51.5539 14.1011 51.5544 14.1068 51.5537C14.1125 51.5531 14.118 51.5513 14.123 51.5486C14.128 51.5458 14.1324 51.542 14.136 51.5375C14.1395 51.533 14.1422 51.5279 14.1437 51.5224ZM74.0235 26.6357C70.9851 24.6216 67.5199 23.5434 63.9485 24.1649C63.036 24.3226 62.0621 24.6191 61.0269 25.0544C57.2427 26.6432 54.2583 29.2518 52.644 33.0869C52.043 34.5154 51.6312 36.1856 51.4085 38.0974C51.2049 39.8315 51.4325 41.4817 52.0165 43.0825C53.1167 46.0985 54.6246 49.0036 56.5404 51.7979C57.8861 53.7586 59.0492 55.3639 60.0295 56.6138C61.553 58.5565 63.3739 60.7778 65.4924 63.2776C65.6211 63.4288 65.7394 63.6205 65.9161 63.7134C66.019 63.7673 66.1093 63.7513 66.1872 63.6654C70.5748 58.857 74.5656 53.6173 77.7358 48.0407C78.0133 47.5525 78.5095 46.5657 79.2243 45.0802C80.7138 41.9824 81.0472 38.7943 80.2246 35.5158C79.2812 31.7511 77.2102 28.7501 74.0235 26.6357ZM104.012 72.8824C105.212 70.2798 105.628 67.3762 105.475 64.537C105.288 61.0418 103.704 57.8013 101.387 55.0998C100.462 54.0187 99.4562 53.1551 98.3711 52.5092C95.448 50.7676 91.7642 49.8317 88.4952 50.8814C85.906 51.7125 83.4352 53.1411 81.2219 54.7404C76.4974 58.1562 72.273 61.6813 68.4274 65.6511C68.3426 65.7389 68.2677 65.8353 68.2028 65.9401C68.1633 66.0033 68.1474 66.0783 68.1578 66.1523C68.1682 66.2262 68.2043 66.2942 68.2597 66.3444C71.5392 69.3259 74.8217 72.2775 78.188 75.1152C80.4582 77.029 82.9824 78.6757 85.7608 80.0554C88.5596 81.4465 91.1861 81.9886 94.2141 81.2204C98.7105 80.0793 101.977 77.3 104.012 72.8824ZM31.4261 54.3541C28.4282 57.3146 26.7271 61.0553 26.5518 65.2318C26.2883 71.5003 29.4031 77.5501 35.1354 80.2845C38.959 82.1084 42.7681 81.9866 46.5627 79.9191C49.5082 78.3138 52.045 76.6351 54.4649 74.5686C55.9814 73.2748 57.4698 72.0194 58.9304 70.8024C60.6136 69.4008 62.2024 67.8689 63.7897 66.3175C63.9395 66.1717 63.9465 66.019 63.8107 65.8592C63.4044 65.385 62.9761 64.9303 62.5258 64.495C60.0111 62.0711 57.3281 59.7226 54.4769 57.4494C52.0809 55.5406 49.5911 53.83 47.0074 52.3175C45.215 51.2663 43.3746 50.5924 41.2451 50.5026C37.4635 50.3418 34.1905 51.6257 31.4261 54.3541ZM52.5751 87.5113C51.9122 89.0008 51.5353 90.2702 51.4445 91.3194C51.0032 96.4069 52.6365 100.67 56.3442 104.108C58.4931 106.1 60.7873 107.384 63.6654 107.801C66.6664 108.235 69.9414 107.787 72.6368 106.333C73.8368 105.686 75.0263 104.773 76.2053 103.594C78.4596 101.341 79.8847 98.6137 80.4807 95.412C80.9489 92.8963 80.6683 90.405 79.6391 87.9381C78.2903 84.7076 76.5652 81.6457 74.4638 78.7526C72.9783 76.707 71.4868 74.633 70.133 72.9888C68.975 71.5841 67.7276 70.1101 66.3908 68.5667C66.1393 68.2752 65.8907 68.2777 65.6451 68.5742C63.3989 71.2786 61.3129 73.8643 59.3871 76.3311C57.5043 78.7431 55.9314 81.0672 54.6686 83.3034C53.9777 84.5244 53.2799 85.927 52.5751 87.5113ZM7.40954 81.8778C10.0541 92.1745 15.0796 101.606 22.6539 108.919C22.6968 108.96 22.7403 108.961 22.7842 108.922L27.9939 104.365C28.0065 104.354 28.0141 104.339 28.0152 104.322C28.0164 104.305 28.0109 104.288 27.9999 104.276C21.6221 97.23 16.8347 89.0612 14.1033 79.997C14.0933 79.963 14.0708 79.9505 14.0359 79.9595L7.45596 81.7954C7.41303 81.8074 7.39756 81.8349 7.40954 81.8778ZM109.565 109.334C116.928 101.573 122.055 92.2134 124.737 81.8928C124.741 81.8773 124.739 81.8609 124.731 81.8472C124.723 81.8335 124.71 81.8235 124.695 81.8194L118.034 79.9475C117.972 79.9296 117.931 79.952 117.913 80.0149C115.371 89.4281 110.825 97.5754 104.274 104.457C104.263 104.468 104.258 104.483 104.258 104.498C104.258 104.514 104.265 104.528 104.276 104.539L109.466 109.337C109.479 109.35 109.497 109.356 109.516 109.356C109.534 109.355 109.552 109.348 109.565 109.334ZM81.7146 125.621L79.9266 118.692C79.9096 118.625 79.8677 118.6 79.8008 118.617C78.4321 118.974 77.3359 119.238 76.5123 119.408C69.572 120.84 62.5982 120.835 55.591 119.393C54.4939 119.167 53.4047 118.912 52.3235 118.626C52.2646 118.611 52.2272 118.633 52.2112 118.692L50.4202 125.631C50.4157 125.648 50.4183 125.666 50.4273 125.681C50.4362 125.696 50.4509 125.707 50.4681 125.712C60.8926 128.516 71.2956 128.506 81.6771 125.682C81.6902 125.679 81.7015 125.671 81.7085 125.659C81.7156 125.648 81.7177 125.634 81.7146 125.621Z" fill="#F84445"/>
<path d="M229.334 102H214.588V43.6992H183.094V102H168.348V31.541H229.334V102ZM273.768 103.221C266.801 103.221 260.763 101.74 255.652 98.7773C250.574 95.8151 246.652 91.6159 243.885 86.1797C241.15 80.7109 239.783 74.2493 239.783 66.7949V66.6973C239.783 59.2103 241.167 52.7487 243.934 47.3125C246.701 41.8763 250.623 37.6934 255.701 34.7637C260.812 31.8014 266.834 30.3203 273.768 30.3203C280.734 30.3203 286.756 31.8014 291.834 34.7637C296.912 37.7259 300.835 41.9251 303.602 47.3613C306.368 52.765 307.752 59.2103 307.752 66.6973V66.7949C307.752 74.2493 306.368 80.7109 303.602 86.1797C300.835 91.6159 296.912 95.8151 291.834 98.7773C286.788 101.74 280.766 103.221 273.768 103.221ZM273.768 90.7207C277.674 90.7207 281.043 89.7441 283.875 87.791C286.707 85.8053 288.888 83.0221 290.418 79.4414C291.948 75.8607 292.713 71.6452 292.713 66.7949V66.6973C292.713 61.7819 291.932 57.5501 290.369 54.002C288.839 50.4212 286.642 47.6706 283.777 45.75C280.945 43.7969 277.609 42.8203 273.768 42.8203C269.926 42.8203 266.574 43.7806 263.709 45.7012C260.877 47.6217 258.68 50.3724 257.117 53.9531C255.587 57.5013 254.822 61.7493 254.822 66.6973V66.7949C254.822 71.6777 255.587 75.9095 257.117 79.4902C258.68 83.071 260.877 85.8379 263.709 87.791C266.541 89.7441 269.894 90.7207 273.768 90.7207ZM332.801 102H318.055V31.541H332.801V60.6426H335.242L359.607 31.541H376.258L346.766 66.0625L346.814 63.8164L378.553 102H360.242L335.242 71.9219H332.801V102ZM385.73 102V31.541H432.41V43.6992H400.477V60.5938H430.604V72.1172H400.477V89.8418H432.41V102H385.73ZM451.258 79.7832V68.2598H468.543C472.775 68.2598 476.062 67.1855 478.406 65.0371C480.783 62.8561 481.971 59.7637 481.971 55.7598V55.6621C481.971 51.6582 480.783 48.582 478.406 46.4336C476.062 44.2852 472.775 43.2109 468.543 43.2109H451.258V31.541H472.156C477.104 31.541 481.434 32.5501 485.145 34.5684C488.855 36.554 491.736 39.3535 493.787 42.9668C495.87 46.5801 496.912 50.7956 496.912 55.6133V55.7109C496.912 60.5612 495.87 64.793 493.787 68.4062C491.736 72.0195 488.855 74.819 485.145 76.8047C481.434 78.7904 477.104 79.7832 472.156 79.7832H451.258ZM443.836 102V31.541H458.582V102H443.836ZM538.123 103.221C531.157 103.221 525.118 101.74 520.008 98.7773C514.93 95.8151 511.007 91.6159 508.24 86.1797C505.506 80.7109 504.139 74.2493 504.139 66.7949V66.6973C504.139 59.2103 505.522 52.7487 508.289 47.3125C511.056 41.8763 514.979 37.6934 520.057 34.7637C525.167 31.8014 531.189 30.3203 538.123 30.3203C545.089 30.3203 551.111 31.8014 556.189 34.7637C561.268 37.7259 565.19 41.9251 567.957 47.3613C570.724 52.765 572.107 59.2103 572.107 66.6973V66.7949C572.107 74.2493 570.724 80.7109 567.957 86.1797C565.19 91.6159 561.268 95.8151 556.189 98.7773C551.144 101.74 545.122 103.221 538.123 103.221ZM538.123 90.7207C542.029 90.7207 545.398 89.7441 548.23 87.791C551.062 85.8053 553.243 83.0221 554.773 79.4414C556.303 75.8607 557.068 71.6452 557.068 66.7949V66.6973C557.068 61.7819 556.287 57.5501 554.725 54.002C553.195 50.4212 550.997 47.6706 548.133 45.75C545.301 43.7969 541.964 42.8203 538.123 42.8203C534.282 42.8203 530.929 43.7806 528.064 45.7012C525.232 47.6217 523.035 50.3724 521.473 53.9531C519.943 57.5013 519.178 61.7493 519.178 66.6973V66.7949C519.178 71.6777 519.943 75.9095 521.473 79.4902C523.035 83.071 525.232 85.8379 528.064 87.791C530.896 89.7441 534.249 90.7207 538.123 90.7207ZM597.156 102H582.41V31.541H597.156V60.6426H599.598L623.963 31.541H640.613L611.121 66.0625L611.17 63.8164L642.908 102H624.598L599.598 71.9219H597.156V102Z" fill="#F5F5F5"/>
</svg>
