<svg width="300" height="42" viewBox="0 0 300 42" fill="none" xmlns="http://www.w3.org/2000/svg">
<g clip-path="url(#clip0_1696_61)">
<path d="M-0.000488281 41.1721V0.693912H36.5116V41.1721H27.2977V6.18739L29.4152 8.32696H7.09591L9.21338 6.18739V41.1721H-0.000488281ZM65.6137 41.866C62.4472 41.866 59.5095 41.3456 56.8005 40.3047C54.13 39.2638 51.8026 37.799 49.8186 35.9099C47.8728 34.0211 46.3469 31.8043 45.2402 29.26C44.1722 26.7157 43.6378 23.94 43.6378 20.933C43.6378 17.9261 44.1722 15.1504 45.2402 12.6061C46.3469 10.0617 47.8921 7.84508 49.8758 5.95609C51.8598 4.06709 54.1872 2.60217 56.8577 1.5613C59.5285 0.520433 62.4282 0 65.5565 0C68.7234 0 71.6228 0.520433 74.2553 1.5613C76.9261 2.60217 79.2342 4.06709 81.18 5.95609C83.164 7.84508 84.7092 10.0617 85.8155 12.6061C86.9222 15.1119 87.4752 17.8875 87.4752 20.933C87.4752 23.94 86.9222 26.7349 85.8155 29.3178C84.7092 31.8621 83.164 34.079 81.18 35.9677C79.2342 37.8182 76.9261 39.2638 74.2553 40.3047C71.6228 41.3456 68.7424 41.866 65.6137 41.866ZM65.5565 33.886C67.3499 33.886 68.9902 33.5777 70.4782 32.9608C72.0044 32.3442 73.3396 31.4573 74.4842 30.3009C75.6288 29.1443 76.5065 27.7758 77.1168 26.1952C77.7656 24.6146 78.0896 22.8606 78.0896 20.933C78.0896 19.0055 77.7656 17.2514 77.1168 15.6709C76.5065 14.0903 75.6288 12.7217 74.4842 11.5652C73.3779 10.4087 72.0616 9.52204 70.5354 8.90522C69.0095 8.2884 67.3499 7.98 65.5565 7.98C63.7634 7.98 62.1038 8.2884 60.5776 8.90522C59.0896 9.52204 57.7734 10.4087 56.6288 11.5652C55.4842 12.7217 54.5878 14.0903 53.939 15.6709C53.3288 17.2514 53.0234 19.0055 53.0234 20.933C53.0234 22.822 53.3288 24.5761 53.939 26.1952C54.5878 27.7758 55.4652 29.1443 56.5716 30.3009C57.7161 31.4573 59.0517 32.3442 60.5776 32.9608C62.1038 33.5777 63.7634 33.886 65.5565 33.886ZM120.542 41.1721L108.066 21.6848L115.563 17.1165L131.072 41.1721H120.542ZM94.5029 41.1721V0.693912H103.717V41.1721H94.5029ZM101.027 24.8652V17.0587H114.991V24.8652H101.027ZM116.422 21.9739L107.894 20.933L120.885 0.693912H130.672L116.422 21.9739ZM143.942 17.0009H163.228V24.287H143.942V17.0009ZM144.629 33.6547H166.433V41.1721H135.415V0.693912H165.689V8.21131H144.629V33.6547ZM173.922 41.1721V0.693912H191.262C194.848 0.693912 197.939 1.29145 200.533 2.48652C203.128 3.64304 205.131 5.32 206.542 7.51739C207.954 9.71478 208.66 12.3362 208.66 15.3817C208.66 18.3887 207.954 20.9909 206.542 23.1883C205.131 25.3857 203.128 27.0819 200.533 28.277C197.939 29.4335 194.848 30.0117 191.262 30.0117H179.072L183.193 25.7904V41.1721H173.922ZM183.193 26.8313L179.072 22.3787H190.747C193.609 22.3787 195.745 21.7619 197.157 20.5283C198.568 19.2946 199.274 17.5791 199.274 15.3817C199.274 13.1458 198.568 11.411 197.157 10.1774C195.745 8.94378 193.609 8.32696 190.747 8.32696H179.072L183.193 3.87435V26.8313ZM234.506 41.866C231.34 41.866 228.402 41.3456 225.693 40.3047C223.022 39.2638 220.695 37.799 218.711 35.9099C216.765 34.0211 215.239 31.8043 214.133 29.26C213.064 26.7157 212.53 23.94 212.53 20.933C212.53 17.9261 213.064 15.1504 214.133 12.6061C215.239 10.0617 216.784 7.84508 218.768 5.95609C220.752 4.06709 223.079 2.60217 225.75 1.5613C228.421 0.520433 231.32 0 234.449 0C237.616 0 240.515 0.520433 243.148 1.5613C245.819 2.60217 248.127 4.06709 250.072 5.95609C252.056 7.84508 253.602 10.0617 254.708 12.6061C255.814 15.1119 256.368 17.8875 256.368 20.933C256.368 23.94 255.814 26.7349 254.708 29.3178C253.602 31.8621 252.056 34.079 250.072 35.9677C248.127 37.8182 245.819 39.2638 243.148 40.3047C240.515 41.3456 237.635 41.866 234.506 41.866ZM234.449 33.886C236.242 33.886 237.883 33.5777 239.371 32.9608C240.897 32.3442 242.232 31.4573 243.377 30.3009C244.521 29.1443 245.399 27.7758 246.009 26.1952C246.658 24.6146 246.982 22.8606 246.982 20.933C246.982 19.0055 246.658 17.2514 246.009 15.6709C245.399 14.0903 244.521 12.7217 243.377 11.5652C242.27 10.4087 240.954 9.52204 239.428 8.90522C237.902 8.2884 236.242 7.98 234.449 7.98C232.656 7.98 230.996 8.2884 229.47 8.90522C227.982 9.52204 226.666 10.4087 225.521 11.5652C224.377 12.7217 223.48 14.0903 222.831 15.6709C222.221 17.2514 221.916 19.0055 221.916 20.933C221.916 22.822 222.221 24.5761 222.831 26.1952C223.48 27.7758 224.358 29.1443 225.464 30.3009C226.609 31.4573 227.944 32.3442 229.47 32.9608C230.996 33.5777 232.656 33.886 234.449 33.886ZM289.434 41.1721L276.958 21.6848L284.455 17.1165L299.964 41.1721H289.434ZM263.395 41.1721V0.693912H272.609V41.1721H263.395ZM269.919 24.8652V17.0587H283.883V24.8652H269.919ZM285.314 21.9739L276.787 20.933L289.778 0.693912H299.564L285.314 21.9739Z" fill="white"/>
</g>
<defs>
<clipPath id="clip0_1696_61">
<rect width="300" height="42" fill="white"/>
</clipPath>
</defs>
</svg>
