<svg width="100" height="14" viewBox="0 0 100 14" fill="none" xmlns="http://www.w3.org/2000/svg">
<g clip-path="url(#clip0_1712_220)">
<path d="M-0.000488281 13.724V0.231304H12.1702V13.724H9.09891V2.06246L9.80474 2.77565H2.36498L3.0708 2.06246V13.724H-0.000488281ZM21.8709 13.9553C20.8154 13.9553 19.8362 13.7819 18.9332 13.4349C18.043 13.0879 17.2672 12.5997 16.6059 11.97C15.9573 11.3404 15.4486 10.6014 15.0798 9.75333C14.7237 8.90522 14.5456 7.98 14.5456 6.97768C14.5456 5.97536 14.7237 5.05015 15.0798 4.20203C15.4486 3.35391 15.9637 2.61503 16.6249 1.98536C17.2863 1.3557 18.0621 0.867391 18.9522 0.520434C19.8425 0.173478 20.8091 0 21.8518 0C22.9075 0 23.8739 0.173478 24.7514 0.520434C25.6417 0.867391 26.4111 1.3557 27.0597 1.98536C27.721 2.61503 28.2361 3.35391 28.6049 4.20203C28.9737 5.03729 29.1581 5.96251 29.1581 6.97768C29.1581 7.98 28.9737 8.91164 28.6049 9.77261C28.2361 10.6207 27.721 11.3597 27.0597 11.9892C26.4111 12.6061 25.6417 13.0879 24.7514 13.4349C23.8739 13.7819 22.9138 13.9553 21.8709 13.9553ZM21.8518 11.2953C22.4496 11.2953 22.9964 11.1926 23.4924 10.9869C24.0011 10.7814 24.4462 10.4858 24.8277 10.1003C25.2093 9.71478 25.5018 9.2586 25.7053 8.73174C25.9215 8.20488 26.0296 7.62019 26.0296 6.97768C26.0296 6.33517 25.9215 5.75048 25.7053 5.22362C25.5018 4.69677 25.2093 4.24058 24.8277 3.85507C24.459 3.46957 24.0202 3.17401 23.5115 2.96841C23.0028 2.7628 22.4496 2.66 21.8518 2.66C21.2542 2.66 20.7009 2.7628 20.1922 2.96841C19.6962 3.17401 19.2575 3.46957 18.8759 3.85507C18.4944 4.24058 18.1956 4.69677 17.9794 5.22362C17.7759 5.75048 17.6741 6.33517 17.6741 6.97768C17.6741 7.60735 17.7759 8.19203 17.9794 8.73174C18.1956 9.2586 18.4881 9.71478 18.8569 10.1003C19.2384 10.4858 19.6836 10.7814 20.1922 10.9869C20.7009 11.1926 21.2542 11.2953 21.8518 11.2953ZM40.1804 13.724L36.0217 7.22826L38.5207 5.70551L43.6904 13.724H40.1804ZM31.5006 13.724V0.231304H34.5719V13.724H31.5006ZM33.6753 8.28841V5.68623H38.33V8.28841H33.6753ZM38.8069 7.32464L35.9645 6.97768L40.2948 0.231304H43.5569L38.8069 7.32464ZM47.9805 5.66696H54.4092V8.09565H47.9805V5.66696ZM48.2094 11.2182H55.4774V13.724H45.1381V0.231304H55.2295V2.7371H48.2094V11.2182ZM57.9736 13.724V0.231304H63.7538C64.9491 0.231304 65.9792 0.430482 66.8441 0.82884C67.7089 1.21435 68.3765 1.77333 68.8471 2.5058C69.3176 3.23826 69.5529 4.11207 69.5529 5.12725C69.5529 6.12957 69.3176 6.99696 68.8471 7.72942C68.3765 8.46188 67.7089 9.02729 66.8441 9.42565C65.9792 9.81116 64.9491 10.0039 63.7538 10.0039H59.6905L61.064 8.59681V13.724H57.9736ZM61.064 8.94377L59.6905 7.45956H63.5821C64.5359 7.45956 65.248 7.25396 65.7186 6.84275C66.1891 6.43155 66.4244 5.85971 66.4244 5.12725C66.4244 4.38193 66.1891 3.80367 65.7186 3.39246C65.248 2.98126 64.5359 2.77565 63.5821 2.77565H59.6905L61.064 1.29145V8.94377ZM78.1684 13.9553C77.1129 13.9553 76.1336 13.7819 75.2307 13.4349C74.3404 13.0879 73.5647 12.5997 72.9033 11.97C72.2547 11.3404 71.746 10.6014 71.3772 9.75333C71.0211 8.90522 70.8431 7.98 70.8431 6.97768C70.8431 5.97536 71.0211 5.05015 71.3772 4.20203C71.746 3.35391 72.2611 2.61503 72.9224 1.98536C73.5838 1.3557 74.3595 0.867391 75.2497 0.520434C76.14 0.173478 77.1065 0 78.1493 0C79.2048 0 80.1714 0.173478 81.0489 0.520434C81.9392 0.867391 82.7086 1.3557 83.3572 1.98536C84.0185 2.61503 84.5336 3.35391 84.9023 4.20203C85.2711 5.03729 85.4556 5.96251 85.4556 6.97768C85.4556 7.98 85.2711 8.91164 84.9023 9.77261C84.5336 10.6207 84.0185 11.3597 83.3572 11.9892C82.7086 12.6061 81.9392 13.0879 81.0489 13.4349C80.1714 13.7819 79.2113 13.9553 78.1684 13.9553ZM78.1493 11.2953C78.747 11.2953 79.2939 11.1926 79.7899 10.9869C80.2986 10.7814 80.7437 10.4858 81.1252 10.1003C81.5068 9.71478 81.7992 9.2586 82.0027 8.73174C82.2189 8.20488 82.327 7.62019 82.327 6.97768C82.327 6.33517 82.2189 5.75048 82.0027 5.22362C81.7992 4.69677 81.5068 4.24058 81.1252 3.85507C80.7565 3.46957 80.3177 3.17401 79.809 2.96841C79.3002 2.7628 78.747 2.66 78.1493 2.66C77.5516 2.66 76.9984 2.7628 76.4897 2.96841C75.9937 3.17401 75.555 3.46957 75.1734 3.85507C74.7919 4.24058 74.493 4.69677 74.2768 5.22362C74.0733 5.75048 73.9716 6.33517 73.9716 6.97768C73.9716 7.60735 74.0733 8.19203 74.2768 8.73174C74.493 9.2586 74.7856 9.71478 75.1544 10.1003C75.5359 10.4858 75.981 10.7814 76.4897 10.9869C76.9984 11.1926 77.5516 11.2953 78.1493 11.2953ZM96.4777 13.724L92.3191 7.22826L94.8181 5.70551L99.9878 13.724H96.4777ZM87.798 13.724V0.231304H90.8693V13.724H87.798ZM89.9727 8.28841V5.68623H94.6273V8.28841H89.9727ZM95.1042 7.32464L92.2619 6.97768L96.5922 0.231304H99.8542L95.1042 7.32464Z" fill="white"/>
</g>
<defs>
<clipPath id="clip0_1712_220">
<rect width="100" height="14" fill="white"/>
</clipPath>
</defs>
</svg>
