<svg width="328" height="76" viewBox="0 0 328 76" fill="none" xmlns="http://www.w3.org/2000/svg">
<path d="M93.5166 43V6.86719H123.497V43H115.978V11.8232H101.036V43H93.5166ZM143.785 43.6104C139.602 43.6104 136.274 42.349 133.8 39.8262C131.342 37.2871 130.113 33.8773 130.113 29.5967C130.113 25.2673 131.35 21.8493 133.824 19.3428C136.314 16.8363 139.692 15.583 143.956 15.583C148.237 15.583 151.614 16.8363 154.088 19.3428C156.578 21.8493 157.823 25.251 157.823 29.5479C157.823 33.9424 156.578 37.3848 154.088 39.875C151.598 42.3652 148.163 43.6104 143.785 43.6104ZM143.907 39.0938C148.058 39.0938 150.133 35.9118 150.133 29.5479C150.133 26.6344 149.579 24.3314 148.473 22.6387C147.382 20.946 145.877 20.0996 143.956 20.0996C142.052 20.0996 140.546 20.946 139.439 22.6387C138.349 24.3314 137.804 26.6507 137.804 29.5967C137.804 32.5101 138.349 34.8213 139.439 36.5303C140.53 38.2393 142.019 39.0938 143.907 39.0938ZM164.464 43V16.1934H171.227V27.3262C172.659 27.3262 173.676 27.0658 174.278 26.5449C174.897 26.0241 175.833 24.6081 177.086 22.2969L177.794 21.0273C178.884 19.0091 179.918 17.707 180.895 17.1211C181.871 16.5189 183.466 16.2178 185.68 16.2178L186.754 16.1934V20.71H186.07C185.208 20.71 184.565 20.8727 184.142 21.1982C183.718 21.5075 183.189 22.248 182.555 23.4199L181.822 24.7383L181.065 26.1055C180.187 27.6842 178.852 28.7666 177.062 29.3525C178.624 29.7432 179.837 30.3291 180.699 31.1104C181.562 31.8916 182.571 33.2995 183.727 35.334L184.532 36.7744L185.899 38.9961L187.364 41.4619C187.527 41.7223 187.877 42.235 188.414 43H180.772C180.463 42.4466 180.26 42.0804 180.162 41.9014L179.039 39.8262C177.021 36.0827 175.222 33.4297 173.644 31.8672H171.227V43H164.464ZM216.368 42.0967C212.934 43.1058 209.679 43.6104 206.603 43.6104C202.127 43.6104 198.595 42.3408 196.007 39.8018C193.419 37.2627 192.125 33.7959 192.125 29.4014C192.125 25.251 193.305 21.9144 195.665 19.3916C198.041 16.8525 201.174 15.583 205.064 15.583C208.987 15.583 211.852 16.82 213.658 19.2939C215.465 21.7679 216.368 25.6823 216.368 31.0371H199.742C200.23 36.1478 203.038 38.7031 208.165 38.7031C210.59 38.7031 213.325 38.1416 216.368 37.0186V42.0967ZM199.645 26.96H209.264C209.264 22.3864 207.791 20.0996 204.845 20.0996C201.85 20.0996 200.117 22.3864 199.645 26.96ZM223.839 52.6436V16.1934H231.065V21.2471C232.921 17.471 235.842 15.583 239.83 15.583C243.053 15.583 245.584 16.763 247.423 19.123C249.278 21.4831 250.206 24.7301 250.206 28.8643C250.206 33.3564 249.164 36.9372 247.081 39.6064C244.998 42.2757 242.206 43.6104 238.707 43.6104C235.891 43.6104 233.344 42.5036 231.065 40.29V52.6436H223.839ZM231.065 35.9932C232.823 37.9463 234.695 38.9229 236.681 38.9229C238.455 38.9229 239.871 38.0684 240.929 36.3594C241.987 34.6341 242.516 32.3392 242.516 29.4746C242.516 23.9896 240.75 21.2471 237.218 21.2471C235.086 21.2471 233.035 22.6224 231.065 25.373V35.9932ZM272.838 43.9033C267.353 43.9033 262.966 42.1781 259.679 38.7275C256.391 35.277 254.747 30.679 254.747 24.9336C254.747 19.123 256.399 14.5088 259.703 11.0908C263.007 7.67285 267.467 5.96387 273.082 5.96387C278.665 5.96387 283.108 7.67285 286.412 11.0908C289.732 14.5088 291.393 19.0986 291.393 24.8604C291.393 30.7523 289.732 35.3991 286.412 38.8008C283.108 42.2025 278.583 43.9033 272.838 43.9033ZM272.936 38.9229C276.158 38.9229 278.705 37.6615 280.577 35.1387C282.465 32.5996 283.409 29.1654 283.409 24.8359C283.409 20.6367 282.465 17.2676 280.577 14.7285C278.689 12.1895 276.191 10.9199 273.082 10.9199C269.941 10.9199 267.426 12.1895 265.538 14.7285C263.666 17.2676 262.73 20.6611 262.73 24.9092C262.73 29.1247 263.666 32.5182 265.538 35.0898C267.41 37.6452 269.876 38.9229 272.936 38.9229ZM298.155 43V6.86719H305.382V22.2236C306.814 22.126 307.848 21.7679 308.482 21.1494C309.117 20.5146 310.362 18.651 312.218 15.5586L313.609 13.2393C315.156 10.6514 316.507 8.95052 317.662 8.13672C318.818 7.32292 320.47 6.91602 322.618 6.91602C322.879 6.91602 323.456 6.89974 324.352 6.86719V11.5303C323.033 11.5303 322.097 11.7093 321.544 12.0674C321.007 12.4092 320.307 13.2799 319.444 14.6797L318.468 16.2666L317.418 18.0488L316.368 19.7822C315.245 21.6865 313.609 23.1432 311.461 24.1523C313.463 24.6406 315.042 25.4219 316.197 26.4961C317.369 27.5703 318.704 29.499 320.201 32.2822L321.202 34.0889L322.691 36.9697C323.603 38.6787 324.783 40.6888 326.231 43H318.004C317.646 42.2676 317.41 41.7956 317.296 41.584L315.685 38.7275L313.683 35.0166C311.616 31.2894 309.801 28.5306 308.238 26.7402H305.382V43H298.155Z" fill="white"/>
<path d="M93.2646 71V60.8828H95.2881V68.2861L99.875 60.8828H101.741V71H99.7178V63.5898L95.1309 71H93.2646ZM104.271 71V60.8828H106.376V64.9912H110.56V60.8828H112.665V71H110.56V66.3857H106.376V71H104.271ZM118.346 71V69.5645C117.188 69.5645 116.24 69.2272 115.502 68.5527C114.764 67.8737 114.395 67.0033 114.395 65.9414C114.395 64.8796 114.764 64.0091 115.502 63.3301C116.24 62.651 117.188 62.3115 118.346 62.3115V60.8828H120.287V62.3115C121.445 62.3115 122.393 62.651 123.131 63.3301C123.869 64.0091 124.238 64.8796 124.238 65.9414C124.238 67.0033 123.869 67.8737 123.131 68.5527C122.393 69.2272 121.445 69.5645 120.287 69.5645V71H118.346ZM118.346 68.2588V63.6172C117.749 63.6172 117.263 63.8337 116.89 64.2666C116.521 64.695 116.336 65.2533 116.336 65.9414C116.336 66.6296 116.521 67.1878 116.89 67.6162C117.263 68.0446 117.749 68.2588 118.346 68.2588ZM120.287 68.2588C120.884 68.2588 121.369 68.0446 121.743 67.6162C122.117 67.1878 122.304 66.6296 122.304 65.9414C122.304 65.2533 122.117 64.695 121.743 64.2666C121.369 63.8337 120.884 63.6172 120.287 63.6172V68.2588ZM130.404 71.2529C128.868 71.2529 127.64 70.7699 126.72 69.8037C125.799 68.8376 125.339 67.5501 125.339 65.9414C125.339 64.3145 125.801 63.0225 126.727 62.0654C127.652 61.1084 128.9 60.6299 130.473 60.6299C132.036 60.6299 133.28 61.1084 134.205 62.0654C135.135 63.0225 135.6 64.3076 135.6 65.9209C135.6 67.5706 135.135 68.8717 134.205 69.8242C133.28 70.7767 132.013 71.2529 130.404 71.2529ZM130.432 69.8584C131.334 69.8584 132.047 69.5052 132.571 68.7988C133.1 68.0879 133.364 67.1263 133.364 65.9141C133.364 64.7383 133.1 63.7949 132.571 63.084C132.043 62.373 131.343 62.0176 130.473 62.0176C129.593 62.0176 128.889 62.373 128.36 63.084C127.836 63.7949 127.574 64.7451 127.574 65.9346C127.574 67.1149 127.836 68.0651 128.36 68.7852C128.884 69.5007 129.575 69.8584 130.432 69.8584ZM137.493 71V60.8828H141.021C142.251 60.8828 143.128 61.0902 143.652 61.5049C144.181 61.915 144.445 62.6032 144.445 63.5693C144.445 64.6631 144.092 65.5153 143.386 66.126C142.684 66.7321 141.7 67.0352 140.433 67.0352H139.558V71H137.493ZM139.558 65.6475H139.968C140.688 65.6475 141.255 65.4811 141.67 65.1484C142.089 64.8112 142.299 64.3555 142.299 63.7812C142.299 62.7741 141.659 62.2705 140.378 62.2705H139.558V65.6475ZM146.079 71V60.8828H148.868L151.302 67.999L153.811 60.8828H156.258V71H154.316V63.3643L151.849 70.3232H150.153L147.733 63.2617V71H146.079ZM157.687 71L161.624 60.8828H163.729L167.667 71H165.507L164.454 68.2998H160.271L159.218 71H157.687ZM160.79 66.9531H163.935L162.362 62.9199L160.79 66.9531ZM169.103 71V60.8828H171.208V69.5645H175.392V60.8828H177.497V69.5645H178.844V73.0234H176.82V71H169.103ZM180.45 71V60.8828H182.474V68.2861L187.061 60.8828H188.927V71H186.903V63.5898L182.316 71H180.45ZM195.893 71.2529C194.357 71.2529 193.129 70.7699 192.208 69.8037C191.287 68.8376 190.827 67.5501 190.827 65.9414C190.827 64.3145 191.29 63.0225 192.215 62.0654C193.14 61.1084 194.389 60.6299 195.961 60.6299C197.524 60.6299 198.768 61.1084 199.693 62.0654C200.623 63.0225 201.088 64.3076 201.088 65.9209C201.088 67.5706 200.623 68.8717 199.693 69.8242C198.768 70.7767 197.501 71.2529 195.893 71.2529ZM195.92 69.8584C196.822 69.8584 197.535 69.5052 198.06 68.7988C198.588 68.0879 198.853 67.1263 198.853 65.9141C198.853 64.7383 198.588 63.7949 198.06 63.084C197.531 62.373 196.831 62.0176 195.961 62.0176C195.081 62.0176 194.377 62.373 193.849 63.084C193.325 63.7949 193.062 64.7451 193.062 65.9346C193.062 67.1149 193.325 68.0651 193.849 68.7852C194.373 69.5007 195.063 69.8584 195.92 69.8584ZM202.981 71V60.8828H205.087V64.9912H209.271V60.8828H211.376V71H209.271V66.3857H205.087V71H202.981ZM213.905 71V60.8828H216.011V64.9912H220.194V60.8828H222.3V71H220.194V66.3857H216.011V71H213.905ZM232.841 71V60.8828H234.905V71H232.841ZM224.829 71V60.8828H226.894V65.1074H227.57C229.074 65.1074 230.104 65.2806 230.66 65.627C231.439 66.11 231.829 66.8688 231.829 67.9033C231.829 69.0381 231.385 69.8812 230.496 70.4326C229.89 70.8109 228.812 71 227.263 71H224.829ZM226.894 69.6943H227.516C228.263 69.6943 228.824 69.5531 229.197 69.2705C229.576 68.9834 229.765 68.555 229.765 67.9854C229.765 67.4613 229.578 67.0693 229.204 66.8096C228.835 66.5452 228.279 66.4131 227.536 66.4131H226.894V69.6943ZM239.28 57.8408H240.716V58.0049C240.716 58.3877 240.784 58.6748 240.921 58.8662C241.062 59.0531 241.274 59.1465 241.557 59.1465C241.839 59.1465 242.051 59.0508 242.192 58.8594C242.334 58.668 242.404 58.3786 242.404 57.9912L242.397 57.8408H243.833C243.833 58.5745 243.642 59.1237 243.259 59.4883C242.881 59.8529 242.313 60.0352 241.557 60.0352C240.796 60.0352 240.226 59.8529 239.848 59.4883C239.469 59.1237 239.28 58.5745 239.28 57.8408ZM237.435 71V60.8828H239.458V68.2861L244.045 60.8828H245.911V71H243.888V63.5898L239.301 71H237.435ZM253.062 71V60.8828H261.456V71H259.351V62.2705H255.167V71H253.062ZM262.878 71L266.815 60.8828H268.921L272.858 71H270.698L269.646 68.2998H265.462L264.409 71H262.878ZM265.981 66.9531H269.126L267.554 62.9199L265.981 66.9531ZM274.294 71V60.8828H277.821C279.052 60.8828 279.929 61.0902 280.453 61.5049C280.982 61.915 281.246 62.6032 281.246 63.5693C281.246 64.6631 280.893 65.5153 280.187 66.126C279.485 66.7321 278.5 67.0352 277.233 67.0352H276.358V71H274.294ZM276.358 65.6475H276.769C277.489 65.6475 278.056 65.4811 278.471 65.1484C278.89 64.8112 279.1 64.3555 279.1 63.7812C279.1 62.7741 278.459 62.2705 277.179 62.2705H276.358V65.6475ZM285.389 71V62.2705H281.766V60.8828H291.124V62.2705H287.501V71H285.389ZM292.546 71V60.8828H294.651V64.9912H298.835V60.8828H300.94V71H298.835V66.3857H294.651V71H292.546ZM303.47 71V60.8828H309.793V62.2705H305.575V65.0938H309.034V66.4473H305.575V69.5645H310.114V71H303.47ZM311.878 71V60.8828H315.405C316.636 60.8828 317.513 61.0902 318.037 61.5049C318.566 61.915 318.83 62.6032 318.83 63.5693C318.83 64.6631 318.477 65.5153 317.771 66.126C317.069 66.7321 316.084 67.0352 314.817 67.0352H313.942V71H311.878ZM313.942 65.6475H314.353C315.073 65.6475 315.64 65.4811 316.055 65.1484C316.474 64.8112 316.684 64.3555 316.684 63.7812C316.684 62.7741 316.043 62.2705 314.763 62.2705H313.942V65.6475Z" fill="#959595"/>
<path d="M36.5 40.0703C36.5 40.0703 21.1016 55.5914 21.1016 63.7548C21.1016 70.5221 27.9962 76 36.5 76C45.0038 76 51.8984 70.5221 51.8984 63.7548C51.8984 55.5914 36.5 40.0703 36.5 40.0703Z" fill="#E5534D"/>
<path d="M36.5 38.9297C36.5 38.9297 21.1016 23.4086 21.1016 15.2452C21.1016 8.47785 27.9962 3 36.5 3C45.0038 3 51.8984 8.47785 51.8984 15.2452C51.8984 23.4086 36.5 38.9297 36.5 38.9297Z" fill="#E5534D"/>
<path d="M37.0703 39.5C37.0703 39.5 52.5914 54.8984 60.7548 54.8984C67.5221 54.8984 73 48.0038 73 39.5C73 30.9962 67.5221 24.1016 60.7548 24.1016C52.5914 24.1016 37.0703 39.5 37.0703 39.5Z" fill="#E5534D"/>
<path d="M35.9297 39.5C35.9297 39.5 20.4086 54.8984 12.2452 54.8984C5.47785 54.8984 0 48.0038 0 39.5C0 30.9962 5.47785 24.1016 12.2452 24.1016C20.4086 24.1016 35.9297 39.5 35.9297 39.5Z" fill="#E5534D"/>
</svg>
