<svg width="312" height="73" viewBox="0 0 312 73" fill="none" xmlns="http://www.w3.org/2000/svg">
<path d="M93.5166 55V18.8672H106.114C110.509 18.8672 113.642 19.6077 115.514 21.0889C117.402 22.5537 118.346 25.0114 118.346 28.4619C118.346 32.3682 117.084 35.4118 114.562 37.5928C112.055 39.7575 108.539 40.8398 104.015 40.8398H100.89V55H93.5166ZM100.89 35.8838H102.354C104.926 35.8838 106.952 35.2897 108.434 34.1016C109.931 32.8971 110.68 31.2695 110.68 29.2188C110.68 25.6217 108.393 23.8232 103.819 23.8232H100.89V35.8838ZM135.436 55.6104C131.253 55.6104 127.924 54.349 125.45 51.8262C122.993 49.2871 121.764 45.8773 121.764 41.5967C121.764 37.2673 123.001 33.8493 125.475 31.3428C127.965 28.8363 131.342 27.583 135.606 27.583C139.887 27.583 143.264 28.8363 145.738 31.3428C148.229 33.8493 149.474 37.251 149.474 41.5479C149.474 45.9424 148.229 49.3848 145.738 51.875C143.248 54.3652 139.814 55.6104 135.436 55.6104ZM135.558 51.0938C139.708 51.0938 141.783 47.9118 141.783 41.5479C141.783 38.6344 141.23 36.3314 140.123 34.6387C139.033 32.946 137.527 32.0996 135.606 32.0996C133.702 32.0996 132.197 32.946 131.09 34.6387C129.999 36.3314 129.454 38.6507 129.454 41.5967C129.454 44.5101 129.999 46.8213 131.09 48.5303C132.18 50.2393 133.67 51.0938 135.558 51.0938ZM156.114 55V16.4502H163.341V40.6934H163.805L173.351 28.1934H179.356L170.543 39.668L182.115 55H173.326L163.805 41.5967H163.341V55H156.114ZM209.581 54.0967C206.147 55.1058 202.892 55.6104 199.815 55.6104C195.34 55.6104 191.808 54.3408 189.22 51.8018C186.632 49.2627 185.338 45.7959 185.338 41.4014C185.338 37.251 186.518 33.9144 188.878 31.3916C191.254 28.8525 194.387 27.583 198.277 27.583C202.2 27.583 205.064 28.82 206.871 31.2939C208.678 33.7679 209.581 37.6823 209.581 43.0371H192.955C193.443 48.1478 196.251 50.7031 201.378 50.7031C203.803 50.7031 206.537 50.1416 209.581 49.0186V54.0967ZM192.857 38.96H202.477C202.477 34.3864 201.004 32.0996 198.058 32.0996C195.063 32.0996 193.329 34.3864 192.857 38.96ZM217.052 55V28.1934H224.278V33.2471C226.15 29.471 228.998 27.583 232.823 27.583C233.279 27.583 233.727 27.6318 234.166 27.7295V34.1748C233.141 33.8005 232.188 33.6133 231.31 33.6133C228.429 33.6133 226.085 35.07 224.278 37.9834V55H217.052ZM255.65 55.9033C250.165 55.9033 245.779 54.1781 242.491 50.7275C239.203 47.277 237.56 42.679 237.56 36.9336C237.56 31.123 239.212 26.5088 242.516 23.0908C245.82 19.6729 250.279 17.9639 255.895 17.9639C261.477 17.9639 265.921 19.6729 269.225 23.0908C272.545 26.5088 274.205 31.0986 274.205 36.8604C274.205 42.7523 272.545 47.3991 269.225 50.8008C265.921 54.2025 261.396 55.9033 255.65 55.9033ZM255.748 50.9229C258.971 50.9229 261.518 49.6615 263.39 47.1387C265.278 44.5996 266.222 41.1654 266.222 36.8359C266.222 32.6367 265.278 29.2676 263.39 26.7285C261.502 24.1895 259.003 22.9199 255.895 22.9199C252.753 22.9199 250.239 24.1895 248.351 26.7285C246.479 29.2676 245.543 32.6611 245.543 36.9092C245.543 41.1247 246.479 44.5182 248.351 47.0898C250.222 49.6452 252.688 50.9229 255.748 50.9229ZM280.968 55V18.8672H288.194V36.3965L302.013 18.8672H308.263L295.738 35.0781L311.29 55H301.891L288.194 37.2266V55H280.968Z" fill="#EFEFEF"/>
<path d="M36.5 37.0703C36.5 37.0703 21.1016 52.5914 21.1016 60.7548C21.1016 67.5221 27.9962 73 36.5 73C45.0038 73 51.8984 67.5221 51.8984 60.7548C51.8984 52.5914 36.5 37.0703 36.5 37.0703Z" fill="#F84445"/>
<path d="M36.5 35.9297C36.5 35.9297 21.1016 20.4086 21.1016 12.2452C21.1016 5.47785 27.9962 0 36.5 0C45.0038 0 51.8984 5.47785 51.8984 12.2452C51.8984 20.4086 36.5 35.9297 36.5 35.9297Z" fill="#F84445"/>
<path d="M37.0703 36.5C37.0703 36.5 52.5914 51.8984 60.7548 51.8984C67.5221 51.8984 73 45.0038 73 36.5C73 27.9962 67.5221 21.1016 60.7548 21.1016C52.5914 21.1016 37.0703 36.5 37.0703 36.5Z" fill="#F84445"/>
<path d="M35.9297 36.5C35.9297 36.5 20.4086 51.8984 12.2452 51.8984C5.47785 51.8984 0 45.0038 0 36.5C0 27.9962 5.47785 21.1016 12.2452 21.1016C20.4086 21.1016 35.9297 36.5 35.9297 36.5Z" fill="#F84445"/>
</svg>
