<svg width="328" height="76" viewBox="0 0 328 76" fill="none" xmlns="http://www.w3.org/2000/svg">
<path d="M93.5166 43V6.86719H123.497V43H115.978V11.8232H101.036V43H93.5166ZM143.785 43.6104C139.602 43.6104 136.274 42.349 133.8 39.8262C131.342 37.2871 130.113 33.8773 130.113 29.5967C130.113 25.2673 131.35 21.8493 133.824 19.3428C136.314 16.8363 139.692 15.583 143.956 15.583C148.237 15.583 151.614 16.8363 154.088 19.3428C156.578 21.8493 157.823 25.251 157.823 29.5479C157.823 33.9424 156.578 37.3848 154.088 39.875C151.598 42.3652 148.163 43.6104 143.785 43.6104ZM143.907 39.0938C148.058 39.0938 150.133 35.9118 150.133 29.5479C150.133 26.6344 149.579 24.3314 148.473 22.6387C147.382 20.946 145.877 20.0996 143.956 20.0996C142.052 20.0996 140.546 20.946 139.439 22.6387C138.349 24.3314 137.804 26.6507 137.804 29.5967C137.804 32.5101 138.349 34.8213 139.439 36.5303C140.53 38.2393 142.019 39.0938 143.907 39.0938ZM164.464 43V16.1934H171.227V27.3262C172.659 27.3262 173.676 27.0658 174.278 26.5449C174.897 26.0241 175.833 24.6081 177.086 22.2969L177.794 21.0273C178.884 19.0091 179.918 17.707 180.895 17.1211C181.871 16.5189 183.466 16.2178 185.68 16.2178L186.754 16.1934V20.71H186.07C185.208 20.71 184.565 20.8727 184.142 21.1982C183.718 21.5075 183.189 22.248 182.555 23.4199L181.822 24.7383L181.065 26.1055C180.187 27.6842 178.852 28.7666 177.062 29.3525C178.624 29.7432 179.837 30.3291 180.699 31.1104C181.562 31.8916 182.571 33.2995 183.727 35.334L184.532 36.7744L185.899 38.9961L187.364 41.4619C187.527 41.7223 187.877 42.235 188.414 43H180.772C180.463 42.4466 180.26 42.0804 180.162 41.9014L179.039 39.8262C177.021 36.0827 175.222 33.4297 173.644 31.8672H171.227V43H164.464ZM216.368 42.0967C212.934 43.1058 209.679 43.6104 206.603 43.6104C202.127 43.6104 198.595 42.3408 196.007 39.8018C193.419 37.2627 192.125 33.7959 192.125 29.4014C192.125 25.251 193.305 21.9144 195.665 19.3916C198.041 16.8525 201.174 15.583 205.064 15.583C208.987 15.583 211.852 16.82 213.658 19.2939C215.465 21.7679 216.368 25.6823 216.368 31.0371H199.742C200.23 36.1478 203.038 38.7031 208.165 38.7031C210.59 38.7031 213.325 38.1416 216.368 37.0186V42.0967ZM199.645 26.96H209.264C209.264 22.3864 207.791 20.0996 204.845 20.0996C201.85 20.0996 200.117 22.3864 199.645 26.96ZM223.839 52.6436V16.1934H231.065V21.2471C232.921 17.471 235.842 15.583 239.83 15.583C243.053 15.583 245.584 16.763 247.423 19.123C249.278 21.4831 250.206 24.7301 250.206 28.8643C250.206 33.3564 249.164 36.9372 247.081 39.6064C244.998 42.2757 242.206 43.6104 238.707 43.6104C235.891 43.6104 233.344 42.5036 231.065 40.29V52.6436H223.839ZM231.065 35.9932C232.823 37.9463 234.695 38.9229 236.681 38.9229C238.455 38.9229 239.871 38.0684 240.929 36.3594C241.987 34.6341 242.516 32.3392 242.516 29.4746C242.516 23.9896 240.75 21.2471 237.218 21.2471C235.086 21.2471 233.035 22.6224 231.065 25.373V35.9932ZM272.838 43.9033C267.353 43.9033 262.966 42.1781 259.679 38.7275C256.391 35.277 254.747 30.679 254.747 24.9336C254.747 19.123 256.399 14.5088 259.703 11.0908C263.007 7.67285 267.467 5.96387 273.082 5.96387C278.665 5.96387 283.108 7.67285 286.412 11.0908C289.732 14.5088 291.393 19.0986 291.393 24.8604C291.393 30.7523 289.732 35.3991 286.412 38.8008C283.108 42.2025 278.583 43.9033 272.838 43.9033ZM272.936 38.9229C276.158 38.9229 278.705 37.6615 280.577 35.1387C282.465 32.5996 283.409 29.1654 283.409 24.8359C283.409 20.6367 282.465 17.2676 280.577 14.7285C278.689 12.1895 276.191 10.9199 273.082 10.9199C269.941 10.9199 267.426 12.1895 265.538 14.7285C263.666 17.2676 262.73 20.6611 262.73 24.9092C262.73 29.1247 263.666 32.5182 265.538 35.0898C267.41 37.6452 269.876 38.9229 272.936 38.9229ZM298.155 43V6.86719H305.382V22.2236C306.814 22.126 307.848 21.7679 308.482 21.1494C309.117 20.5146 310.362 18.651 312.218 15.5586L313.609 13.2393C315.156 10.6514 316.507 8.95052 317.662 8.13672C318.818 7.32292 320.47 6.91602 322.618 6.91602C322.879 6.91602 323.456 6.89974 324.352 6.86719V11.5303C323.033 11.5303 322.097 11.7093 321.544 12.0674C321.007 12.4092 320.307 13.2799 319.444 14.6797L318.468 16.2666L317.418 18.0488L316.368 19.7822C315.245 21.6865 313.609 23.1432 311.461 24.1523C313.463 24.6406 315.042 25.4219 316.197 26.4961C317.369 27.5703 318.704 29.499 320.201 32.2822L321.202 34.0889L322.691 36.9697C323.603 38.6787 324.783 40.6888 326.231 43H318.004C317.646 42.2676 317.41 41.7956 317.296 41.584L315.685 38.7275L313.683 35.0166C311.616 31.2894 309.801 28.5306 308.238 26.7402H305.382V43H298.155Z" fill="white"/>
<path d="M93.1743 71V61.6055H95.0532V68.48L99.3125 61.6055H101.045V71H99.1665V64.1191L94.9072 71H93.1743ZM104.044 71V61.6055H105.999V65.4204H109.884V61.6055H111.839V71H109.884V66.7153H105.999V71H104.044ZM117.764 71V69.667C116.689 69.667 115.809 69.3538 115.123 68.7275C114.438 68.097 114.095 67.2887 114.095 66.3027C114.095 65.3167 114.438 64.5085 115.123 63.8779C115.809 63.2474 116.689 62.9321 117.764 62.9321V61.6055H119.567V62.9321C120.641 62.9321 121.522 63.2474 122.207 63.8779C122.893 64.5085 123.236 65.3167 123.236 66.3027C123.236 67.2887 122.893 68.097 122.207 68.7275C121.522 69.3538 120.641 69.667 119.567 69.667V71H117.764ZM117.764 68.4546V64.1445C117.21 64.1445 116.759 64.3455 116.412 64.7476C116.069 65.1453 115.898 65.6637 115.898 66.3027C115.898 66.9417 116.069 67.4601 116.412 67.8579C116.759 68.2557 117.21 68.4546 117.764 68.4546ZM119.567 68.4546C120.121 68.4546 120.572 68.2557 120.919 67.8579C121.266 67.4601 121.439 66.9417 121.439 66.3027C121.439 65.6637 121.266 65.1453 120.919 64.7476C120.572 64.3455 120.121 64.1445 119.567 64.1445V68.4546ZM129.611 71.2349C128.185 71.2349 127.045 70.7863 126.19 69.8892C125.335 68.992 124.908 67.7965 124.908 66.3027C124.908 64.792 125.337 63.5923 126.196 62.7036C127.055 61.8149 128.215 61.3706 129.675 61.3706C131.126 61.3706 132.281 61.8149 133.14 62.7036C134.004 63.5923 134.435 64.7856 134.435 66.2837C134.435 67.8156 134.004 69.0238 133.14 69.9082C132.281 70.7926 131.105 71.2349 129.611 71.2349ZM129.637 69.9399C130.474 69.9399 131.137 69.612 131.623 68.9561C132.114 68.2959 132.36 67.403 132.36 66.2773C132.36 65.1855 132.114 64.3096 131.623 63.6494C131.132 62.9893 130.483 62.6592 129.675 62.6592C128.858 62.6592 128.204 62.9893 127.713 63.6494C127.227 64.3096 126.983 65.1919 126.983 66.2964C126.983 67.3924 127.227 68.2747 127.713 68.9434C128.2 69.6077 128.841 69.9399 129.637 69.9399ZM136.844 71V61.6055H140.119C141.262 61.6055 142.076 61.798 142.563 62.1831C143.054 62.564 143.299 63.203 143.299 64.1001C143.299 65.1157 142.971 65.9071 142.315 66.4741C141.664 67.0369 140.75 67.3184 139.573 67.3184H138.761V71H136.844ZM138.761 66.0298H139.142C139.81 66.0298 140.337 65.8753 140.722 65.5664C141.111 65.2533 141.306 64.8301 141.306 64.2969C141.306 63.3617 140.711 62.894 139.522 62.894H138.761V66.0298ZM145.466 71V61.6055H148.056L150.316 68.2134L152.646 61.6055H154.918V71H153.115V63.9097L150.824 70.3716H149.25L147.002 63.8145V71H145.466ZM156.895 71L160.551 61.6055H162.506L166.162 71H164.156L163.179 68.4927H159.294L158.317 71H156.895ZM159.776 67.2422H162.696L161.236 63.4971L159.776 67.2422ZM168.145 71V61.6055H170.1V69.667H173.985V61.6055H175.94V69.667H177.191V72.8789H175.312V71H168.145ZM179.332 71V61.6055H181.211V68.48L185.471 61.6055H187.203V71H185.325V64.1191L181.065 71H179.332ZM194.322 71.2349C192.896 71.2349 191.755 70.7863 190.9 69.8892C190.045 68.992 189.618 67.7965 189.618 66.3027C189.618 64.792 190.048 63.5923 190.907 62.7036C191.766 61.8149 192.925 61.3706 194.385 61.3706C195.837 61.3706 196.992 61.8149 197.851 62.7036C198.714 63.5923 199.146 64.7856 199.146 66.2837C199.146 67.8156 198.714 69.0238 197.851 69.9082C196.992 70.7926 195.815 71.2349 194.322 71.2349ZM194.347 69.9399C195.185 69.9399 195.847 69.612 196.334 68.9561C196.825 68.2959 197.07 67.403 197.07 66.2773C197.07 65.1855 196.825 64.3096 196.334 63.6494C195.843 62.9893 195.193 62.6592 194.385 62.6592C193.568 62.6592 192.915 62.9893 192.424 63.6494C191.937 64.3096 191.694 65.1919 191.694 66.2964C191.694 67.3924 191.937 68.2747 192.424 68.9434C192.91 69.6077 193.551 69.9399 194.347 69.9399ZM201.554 71V61.6055H203.509V65.4204H207.394V61.6055H209.349V71H207.394V66.7153H203.509V71H201.554ZM212.348 71V61.6055H214.303V65.4204H218.188V61.6055H220.143V71H218.188V66.7153H214.303V71H212.348ZM230.581 71V61.6055H232.498V71H230.581ZM223.141 71V61.6055H225.058V65.5283H225.687C227.083 65.5283 228.04 65.6891 228.556 66.0107C229.279 66.4593 229.641 67.1639 229.641 68.1245C229.641 69.1782 229.229 69.9611 228.404 70.4731C227.841 70.8244 226.84 71 225.401 71H223.141ZM225.058 69.7876H225.636C226.33 69.7876 226.85 69.6564 227.197 69.394C227.549 69.1274 227.724 68.7297 227.724 68.2007C227.724 67.714 227.551 67.3501 227.204 67.1089C226.861 66.8634 226.345 66.7407 225.655 66.7407H225.058V69.7876ZM237.21 58.7808H238.543V58.9331C238.543 59.2886 238.607 59.5552 238.734 59.7329C238.865 59.9064 239.062 59.9932 239.324 59.9932C239.586 59.9932 239.783 59.9043 239.914 59.7266C240.046 59.5488 240.111 59.2801 240.111 58.9204L240.105 58.7808H241.438C241.438 59.4621 241.26 59.972 240.905 60.3105C240.553 60.6491 240.026 60.8184 239.324 60.8184C238.617 60.8184 238.088 60.6491 237.737 60.3105C237.386 59.972 237.21 59.4621 237.21 58.7808ZM235.496 71V61.6055H237.375V68.48L241.635 61.6055H243.367V71H241.489V64.1191L237.229 71H235.496ZM251.307 71V61.6055H259.102V71H257.147V62.894H253.262V71H251.307ZM261.072 71L264.729 61.6055H266.684L270.34 71H268.334L267.357 68.4927H263.472L262.494 71H261.072ZM263.954 67.2422H266.874L265.414 63.4971L263.954 67.2422ZM272.323 71V61.6055H275.598C276.741 61.6055 277.556 61.798 278.042 62.1831C278.533 62.564 278.779 63.203 278.779 64.1001C278.779 65.1157 278.451 65.9071 277.795 66.4741C277.143 67.0369 276.229 67.3184 275.052 67.3184H274.24V71H272.323ZM274.24 66.0298H274.621C275.289 66.0298 275.816 65.8753 276.201 65.5664C276.591 65.2533 276.785 64.8301 276.785 64.2969C276.785 63.3617 276.191 62.894 275.002 62.894H274.24V66.0298ZM283.275 71V62.894H279.911V61.6055H288.601V62.894H285.237V71H283.275ZM290.571 71V61.6055H292.526V65.4204H296.411V61.6055H298.366V71H296.411V66.7153H292.526V71H290.571ZM301.365 71V61.6055H307.236V62.894H303.32V65.5156H306.532V66.7725H303.32V69.667H307.535V71H301.365ZM309.822 71V61.6055H313.098C314.24 61.6055 315.055 61.798 315.542 62.1831C316.032 62.564 316.278 63.203 316.278 64.1001C316.278 65.1157 315.95 65.9071 315.294 66.4741C314.642 67.0369 313.728 67.3184 312.552 67.3184H311.739V71H309.822ZM311.739 66.0298H312.12C312.789 66.0298 313.316 65.8753 313.701 65.5664C314.09 65.2533 314.285 64.8301 314.285 64.2969C314.285 63.3617 313.69 62.894 312.501 62.894H311.739V66.0298Z" fill="#959595"/>
<path d="M36.5 40.0703C36.5 40.0703 21.1016 55.5914 21.1016 63.7548C21.1016 70.5221 27.9962 76 36.5 76C45.0038 76 51.8984 70.5221 51.8984 63.7548C51.8984 55.5914 36.5 40.0703 36.5 40.0703Z" fill="#E5534D"/>
<path d="M36.5 38.9297C36.5 38.9297 21.1016 23.4086 21.1016 15.2452C21.1016 8.47785 27.9962 3 36.5 3C45.0038 3 51.8984 8.47785 51.8984 15.2452C51.8984 23.4086 36.5 38.9297 36.5 38.9297Z" fill="#E5534D"/>
<path d="M37.0703 39.5C37.0703 39.5 52.5914 54.8984 60.7548 54.8984C67.5221 54.8984 73 48.0038 73 39.5C73 30.9962 67.5221 24.1016 60.7548 24.1016C52.5914 24.1016 37.0703 39.5 37.0703 39.5Z" fill="#E5534D"/>
<path d="M35.9297 39.5C35.9297 39.5 20.4086 54.8984 12.2452 54.8984C5.47785 54.8984 0 48.0038 0 39.5C0 30.9962 5.47785 24.1016 12.2452 24.1016C20.4086 24.1016 35.9297 39.5 35.9297 39.5Z" fill="#E5534D"/>
</svg>
