<svg width="334" height="73" viewBox="0 0 334 73" fill="none" xmlns="http://www.w3.org/2000/svg">
<path d="M93.5166 56V19.8672H123.497V56H115.978V24.8232H101.036V56H93.5166ZM143.785 56.6104C139.602 56.6104 136.274 55.349 133.8 52.8262C131.342 50.2871 130.113 46.8773 130.113 42.5967C130.113 38.2673 131.35 34.8493 133.824 32.3428C136.314 29.8363 139.692 28.583 143.956 28.583C148.237 28.583 151.614 29.8363 154.088 32.3428C156.578 34.8493 157.823 38.251 157.823 42.5479C157.823 46.9424 156.578 50.3848 154.088 52.875C151.598 55.3652 148.163 56.6104 143.785 56.6104ZM143.907 52.0938C148.058 52.0938 150.133 48.9118 150.133 42.5479C150.133 39.6344 149.579 37.3314 148.473 35.6387C147.382 33.946 145.877 33.0996 143.956 33.0996C142.052 33.0996 140.546 33.946 139.439 35.6387C138.349 37.3314 137.804 39.6507 137.804 42.5967C137.804 45.5101 138.349 47.8213 139.439 49.5303C140.53 51.2393 142.019 52.0938 143.907 52.0938ZM164.464 56V29.1934H171.227V40.3262C172.659 40.3262 173.676 40.0658 174.278 39.5449C174.897 39.0241 175.833 37.6081 177.086 35.2969L177.794 34.0273C178.884 32.0091 179.918 30.707 180.895 30.1211C181.871 29.5189 183.466 29.2178 185.68 29.2178L186.754 29.1934V33.71H186.07C185.208 33.71 184.565 33.8727 184.142 34.1982C183.718 34.5075 183.189 35.248 182.555 36.4199L181.822 37.7383L181.065 39.1055C180.187 40.6842 178.852 41.7666 177.062 42.3525C178.624 42.7432 179.837 43.3291 180.699 44.1104C181.562 44.8916 182.571 46.2995 183.727 48.334L184.532 49.7744L185.899 51.9961L187.364 54.4619C187.527 54.7223 187.877 55.235 188.414 56H180.772C180.463 55.4466 180.26 55.0804 180.162 54.9014L179.039 52.8262C177.021 49.0827 175.222 46.4297 173.644 44.8672H171.227V56H164.464ZM216.368 55.0967C212.934 56.1058 209.679 56.6104 206.603 56.6104C202.127 56.6104 198.595 55.3408 196.007 52.8018C193.419 50.2627 192.125 46.7959 192.125 42.4014C192.125 38.251 193.305 34.9144 195.665 32.3916C198.041 29.8525 201.174 28.583 205.064 28.583C208.987 28.583 211.852 29.82 213.658 32.2939C215.465 34.7679 216.368 38.6823 216.368 44.0371H199.742C200.23 49.1478 203.038 51.7031 208.165 51.7031C210.59 51.7031 213.325 51.1416 216.368 50.0186V55.0967ZM199.645 39.96H209.264C209.264 35.3864 207.791 33.0996 204.845 33.0996C201.85 33.0996 200.117 35.3864 199.645 39.96ZM223.839 65.6436V29.1934H231.065V34.2471C232.921 30.471 235.842 28.583 239.83 28.583C243.053 28.583 245.584 29.763 247.423 32.123C249.278 34.4831 250.206 37.7301 250.206 41.8643C250.206 46.3564 249.164 49.9372 247.081 52.6064C244.998 55.2757 242.206 56.6104 238.707 56.6104C235.891 56.6104 233.344 55.5036 231.065 53.29V65.6436H223.839ZM231.065 48.9932C232.823 50.9463 234.695 51.9229 236.681 51.9229C238.455 51.9229 239.871 51.0684 240.929 49.3594C241.987 47.6341 242.516 45.3392 242.516 42.4746C242.516 36.9896 240.75 34.2471 237.218 34.2471C235.086 34.2471 233.035 35.6224 231.065 38.373V48.9932ZM272.838 56.9033C267.353 56.9033 262.966 55.1781 259.679 51.7275C256.391 48.277 254.747 43.679 254.747 37.9336C254.747 32.123 256.399 27.5088 259.703 24.0908C263.007 20.6729 267.467 18.9639 273.082 18.9639C278.665 18.9639 283.108 20.6729 286.412 24.0908C289.732 27.5088 291.393 32.0986 291.393 37.8604C291.393 43.7523 289.732 48.3991 286.412 51.8008C283.108 55.2025 278.583 56.9033 272.838 56.9033ZM272.936 51.9229C276.158 51.9229 278.705 50.6615 280.577 48.1387C282.465 45.5996 283.409 42.1654 283.409 37.8359C283.409 33.6367 282.465 30.2676 280.577 27.7285C278.689 25.1895 276.191 23.9199 273.082 23.9199C269.941 23.9199 267.426 25.1895 265.538 27.7285C263.666 30.2676 262.73 33.6611 262.73 37.9092C262.73 42.1247 263.666 45.5182 265.538 48.0898C267.41 50.6452 269.876 51.9229 272.936 51.9229ZM298.155 56V19.8672H305.382V35.2236C306.814 35.126 307.848 34.7679 308.482 34.1494C309.117 33.5146 310.362 31.651 312.218 28.5586L313.609 26.2393C315.156 23.6514 316.507 21.9505 317.662 21.1367C318.818 20.3229 320.47 19.916 322.618 19.916C322.879 19.916 323.456 19.8997 324.352 19.8672V24.5303C323.033 24.5303 322.097 24.7093 321.544 25.0674C321.007 25.4092 320.307 26.2799 319.444 27.6797L318.468 29.2666L317.418 31.0488L316.368 32.7822C315.245 34.6865 313.609 36.1432 311.461 37.1523C313.463 37.6406 315.042 38.4219 316.197 39.4961C317.369 40.5703 318.704 42.499 320.201 45.2822L321.202 47.0889L322.691 49.9697C323.603 51.6787 324.783 53.6888 326.231 56H318.004C317.646 55.2676 317.41 54.7956 317.296 54.584L315.685 51.7275L313.683 48.0166C311.616 44.2894 309.801 41.5306 308.238 39.7402H305.382V56H298.155Z" fill="white"/>
<path d="M73 36.5C73 41.2933 72.0559 46.0396 70.2216 50.4679C68.3873 54.8963 65.6987 58.9201 62.3094 62.3094C58.9201 65.6987 54.8963 68.3873 50.4679 70.2216C46.0396 72.0559 41.2932 73 36.5 73C26.8196 73 17.5357 69.1545 10.6906 62.3094C3.84552 55.4643 0 46.1804 0 36.5C0 26.8196 3.84552 17.5357 10.6906 10.6906C17.5357 3.84552 26.8196 0 36.5 0C41.2932 0 46.0396 0.944101 50.4679 2.7784C54.8963 4.61269 58.9201 7.30126 62.3094 10.6906C65.6987 14.0799 68.3873 18.1037 70.2216 22.5321C72.0559 26.9604 73 31.7068 73 36.5ZM44.1944 7.10969L45.1708 3.29025C45.179 3.25823 45.1672 3.23808 45.1352 3.2298C39.353 1.6933 33.6111 1.6955 27.9096 3.23642C27.9063 3.23729 27.9032 3.23879 27.9006 3.24084C27.8979 3.24289 27.8956 3.24545 27.8939 3.24837C27.8922 3.2513 27.8911 3.25453 27.8907 3.25788C27.8903 3.26122 27.8905 3.26463 27.8914 3.26789L28.886 7.11135C28.8942 7.14226 28.9141 7.15358 28.9456 7.1453C34.0393 5.77554 39.1073 5.7725 44.1496 7.13619C44.1543 7.13753 44.1591 7.13791 44.1639 7.13729C44.1686 7.13667 44.1733 7.13508 44.1774 7.1326C44.1816 7.13013 44.1853 7.12682 44.1882 7.12288C44.1911 7.11895 44.1932 7.11446 44.1944 7.10969ZM63.3206 23.2653C64.0289 24.7808 64.6605 26.5224 65.2154 28.4901C65.2177 28.4983 65.2232 28.5052 65.2304 28.5094C65.2377 28.5136 65.2463 28.5147 65.2543 28.5125L68.9379 27.5005C68.971 27.4916 68.9832 27.4707 68.9743 27.4375C67.4252 21.5554 64.5998 16.4755 60.4982 12.1979C60.495 12.1945 60.4911 12.1918 60.4868 12.1899C60.4825 12.188 60.4778 12.187 60.4731 12.1869C60.4684 12.1869 60.4638 12.1877 60.4594 12.1894C60.455 12.1912 60.4511 12.1938 60.4477 12.197L57.7173 14.8347C57.7085 14.8433 57.7033 14.8549 57.7026 14.8672C57.702 14.8795 57.7061 14.8915 57.714 14.901C58.6343 16.0256 59.5152 17.1372 60.3566 18.2359C61.4072 19.6073 62.3952 21.2838 63.3206 23.2653ZM7.8219 28.4934C9.30595 23.3771 12.077 18.8603 15.6049 14.9159C15.6114 14.9086 15.6148 14.899 15.6143 14.8893C15.6138 14.8795 15.6096 14.8703 15.6024 14.8637L12.795 12.3055C12.7745 12.2873 12.7547 12.2876 12.7353 12.3063C9.38683 15.5538 6.8883 19.3978 5.23972 23.8384C4.8008 25.021 4.42316 26.2293 4.10681 27.4632C4.10184 27.4825 4.10902 27.4947 4.12834 27.4996L7.79209 28.51C7.79513 28.5109 7.79832 28.5111 7.80147 28.5108C7.80462 28.5104 7.80767 28.5095 7.81045 28.5079C7.81322 28.5064 7.81566 28.5043 7.81762 28.5018C7.81959 28.4993 7.82104 28.4965 7.8219 28.4934ZM40.9372 14.7304C39.2569 13.6165 37.3406 13.0202 35.3654 13.3639C34.8608 13.4511 34.3222 13.6151 33.7497 13.8558C31.657 14.7345 30.0065 16.1771 29.1137 18.298C28.7813 19.0881 28.5536 20.0118 28.4305 21.069C28.3179 22.028 28.4437 22.9407 28.7667 23.826C29.3751 25.4939 30.2091 27.1005 31.2686 28.6458C32.0128 29.7301 32.656 30.6179 33.1982 31.3091C34.0407 32.3835 35.0477 33.612 36.2193 34.9944C36.2905 35.0781 36.3559 35.1841 36.4536 35.2354C36.5105 35.2652 36.5605 35.2564 36.6035 35.2089C39.03 32.5497 41.237 29.652 42.9902 26.568C43.1437 26.298 43.4181 25.7522 43.8134 24.9307C44.6372 23.2175 44.8216 21.4544 44.3666 19.6413C43.8449 17.5593 42.6996 15.8997 40.9372 14.7304ZM57.5218 40.3062C58.1852 38.8669 58.4154 37.2611 58.3309 35.6909C58.2274 33.758 57.3512 31.9659 56.0701 30.4719C55.5583 29.8739 55.0023 29.3964 54.4022 29.0392C52.7856 28.076 50.7484 27.5584 48.9405 28.139C47.5086 28.5986 46.1422 29.3887 44.9182 30.2731C42.3054 32.1621 39.9691 34.1116 37.8424 36.307C37.7955 36.3556 37.7541 36.4089 37.7182 36.4669C37.6964 36.5018 37.6876 36.5433 37.6933 36.5842C37.6991 36.6251 37.719 36.6627 37.7497 36.6905C39.5633 38.3393 41.3786 39.9716 43.2403 41.541C44.4958 42.5993 45.8918 43.51 47.4283 44.273C48.9761 45.0424 50.4287 45.3422 52.1032 44.9173C54.5899 44.2863 56.3961 42.7492 57.5218 40.3062ZM17.3796 30.0595C15.7216 31.6967 14.7809 33.7654 14.684 36.0752C14.5382 39.5418 16.2608 42.8875 19.4309 44.3997C21.5455 45.4084 23.652 45.3411 25.7506 44.1977C27.3796 43.3099 28.7824 42.3815 30.1207 41.2387C30.9594 40.5232 31.7826 39.8289 32.5903 39.1559C33.5211 38.3807 34.3998 37.5335 35.2776 36.6756C35.3605 36.595 35.3643 36.5105 35.2892 36.4222C35.0645 36.1599 34.8277 35.9084 34.5787 35.6677C33.1879 34.3272 31.7042 33.0284 30.1274 31.7712C28.8023 30.7156 27.4254 29.7696 25.9965 28.9332C25.0052 28.3518 23.9874 27.9791 22.8098 27.9294C20.7184 27.8406 18.9084 28.5506 17.3796 30.0595ZM29.0756 48.3964C28.709 49.2201 28.5006 49.9221 28.4504 50.5024C28.2063 53.3159 29.1096 55.6734 31.1601 57.5748C32.3485 58.6763 33.6172 59.3868 35.2089 59.6171C36.8685 59.8572 38.6797 59.6096 40.1704 58.8055C40.834 58.4477 41.4918 57.9428 42.1439 57.2908C43.3905 56.0447 44.1786 54.5363 44.5082 52.7658C44.7672 51.3745 44.612 49.9967 44.0428 48.6324C43.2969 46.8458 42.3429 45.1525 41.1807 43.5526C40.3592 42.4213 39.5343 41.2743 38.7857 40.365C38.1453 39.5882 37.4554 38.773 36.7161 37.9195C36.577 37.7582 36.4395 37.7596 36.3037 37.9236C35.0615 39.4192 33.9079 40.8492 32.8429 42.2134C31.8016 43.5473 30.9318 44.8326 30.2334 46.0693C29.8513 46.7445 29.4654 47.5202 29.0756 48.3964ZM4.0977 45.2809C5.56022 50.9753 8.3395 56.191 12.5283 60.2357C12.552 60.2583 12.576 60.2589 12.6003 60.2373L15.4815 57.7173C15.4884 57.7111 15.4927 57.7024 15.4933 57.6931C15.4939 57.6838 15.4908 57.6747 15.4848 57.6676C11.9577 53.7711 9.31009 49.2536 7.79954 44.2407C7.79402 44.222 7.7816 44.2151 7.76228 44.22L4.12337 45.2354C4.09963 45.242 4.09107 45.2572 4.0977 45.2809ZM60.5926 60.4651C64.6646 56.1728 67.5002 50.9968 68.9835 45.2892C68.9856 45.2806 68.9843 45.2716 68.98 45.264C68.9756 45.2564 68.9686 45.2509 68.9603 45.2486L65.2766 44.2134C65.2419 44.2035 65.2195 44.2159 65.2096 44.2507C63.8039 49.4565 61.2896 53.9622 57.6668 57.7678C57.6608 57.774 57.6576 57.7822 57.6578 57.7907C57.6579 57.7993 57.6614 57.8074 57.6676 57.8133L60.538 60.4667C60.5455 60.4737 60.5554 60.4774 60.5656 60.4771C60.5759 60.4768 60.5856 60.4725 60.5926 60.4651ZM45.1906 69.4721L44.2018 65.6402C44.1924 65.6032 44.1692 65.5894 44.1323 65.5988C43.3753 65.7965 42.7691 65.9422 42.3136 66.0361C38.4754 66.8283 34.6187 66.8256 30.7435 66.0278C30.1367 65.903 29.5344 65.7617 28.9365 65.6038C28.9039 65.5955 28.8832 65.6076 28.8744 65.6402L27.8839 69.4779C27.8814 69.4872 27.8828 69.4971 27.8878 69.5055C27.8928 69.5139 27.9009 69.52 27.9104 69.5226C33.6754 71.0734 39.4286 71.0679 45.1699 69.506C45.1772 69.5043 45.1834 69.4997 45.1873 69.4933C45.1912 69.487 45.1924 69.4793 45.1906 69.4721Z" fill="white"/>
</svg>
