<svg width="328" height="73" viewBox="0 0 328 73" fill="none" xmlns="http://www.w3.org/2000/svg">
<path d="M93.5166 56V19.8672H123.497V56H115.978V24.8232H101.036V56H93.5166ZM143.785 56.6104C139.602 56.6104 136.274 55.349 133.8 52.8262C131.342 50.2871 130.113 46.8773 130.113 42.5967C130.113 38.2673 131.35 34.8493 133.824 32.3428C136.314 29.8363 139.692 28.583 143.956 28.583C148.237 28.583 151.614 29.8363 154.088 32.3428C156.578 34.8493 157.823 38.251 157.823 42.5479C157.823 46.9424 156.578 50.3848 154.088 52.875C151.598 55.3652 148.163 56.6104 143.785 56.6104ZM143.907 52.0938C148.058 52.0938 150.133 48.9118 150.133 42.5479C150.133 39.6344 149.579 37.3314 148.473 35.6387C147.382 33.946 145.877 33.0996 143.956 33.0996C142.052 33.0996 140.546 33.946 139.439 35.6387C138.349 37.3314 137.804 39.6507 137.804 42.5967C137.804 45.5101 138.349 47.8213 139.439 49.5303C140.53 51.2393 142.019 52.0938 143.907 52.0938ZM164.464 56V29.1934H171.227V40.3262C172.659 40.3262 173.676 40.0658 174.278 39.5449C174.897 39.0241 175.833 37.6081 177.086 35.2969L177.794 34.0273C178.884 32.0091 179.918 30.707 180.895 30.1211C181.871 29.5189 183.466 29.2178 185.68 29.2178L186.754 29.1934V33.71H186.07C185.208 33.71 184.565 33.8727 184.142 34.1982C183.718 34.5075 183.189 35.248 182.555 36.4199L181.822 37.7383L181.065 39.1055C180.187 40.6842 178.852 41.7666 177.062 42.3525C178.624 42.7432 179.837 43.3291 180.699 44.1104C181.562 44.8916 182.571 46.2995 183.727 48.334L184.532 49.7744L185.899 51.9961L187.364 54.4619C187.527 54.7223 187.877 55.235 188.414 56H180.772C180.463 55.4466 180.26 55.0804 180.162 54.9014L179.039 52.8262C177.021 49.0827 175.222 46.4297 173.644 44.8672H171.227V56H164.464ZM216.368 55.0967C212.934 56.1058 209.679 56.6104 206.603 56.6104C202.127 56.6104 198.595 55.3408 196.007 52.8018C193.419 50.2627 192.125 46.7959 192.125 42.4014C192.125 38.251 193.305 34.9144 195.665 32.3916C198.041 29.8525 201.174 28.583 205.064 28.583C208.987 28.583 211.852 29.82 213.658 32.2939C215.465 34.7679 216.368 38.6823 216.368 44.0371H199.742C200.23 49.1478 203.038 51.7031 208.165 51.7031C210.59 51.7031 213.325 51.1416 216.368 50.0186V55.0967ZM199.645 39.96H209.264C209.264 35.3864 207.791 33.0996 204.845 33.0996C201.85 33.0996 200.117 35.3864 199.645 39.96ZM223.839 65.6436V29.1934H231.065V34.2471C232.921 30.471 235.842 28.583 239.83 28.583C243.053 28.583 245.584 29.763 247.423 32.123C249.278 34.4831 250.206 37.7301 250.206 41.8643C250.206 46.3564 249.164 49.9372 247.081 52.6064C244.998 55.2757 242.206 56.6104 238.707 56.6104C235.891 56.6104 233.344 55.5036 231.065 53.29V65.6436H223.839ZM231.065 48.9932C232.823 50.9463 234.695 51.9229 236.681 51.9229C238.455 51.9229 239.871 51.0684 240.929 49.3594C241.987 47.6341 242.516 45.3392 242.516 42.4746C242.516 36.9896 240.75 34.2471 237.218 34.2471C235.086 34.2471 233.035 35.6224 231.065 38.373V48.9932ZM272.838 56.9033C267.353 56.9033 262.966 55.1781 259.679 51.7275C256.391 48.277 254.747 43.679 254.747 37.9336C254.747 32.123 256.399 27.5088 259.703 24.0908C263.007 20.6729 267.467 18.9639 273.082 18.9639C278.665 18.9639 283.108 20.6729 286.412 24.0908C289.732 27.5088 291.393 32.0986 291.393 37.8604C291.393 43.7523 289.732 48.3991 286.412 51.8008C283.108 55.2025 278.583 56.9033 272.838 56.9033ZM272.936 51.9229C276.158 51.9229 278.705 50.6615 280.577 48.1387C282.465 45.5996 283.409 42.1654 283.409 37.8359C283.409 33.6367 282.465 30.2676 280.577 27.7285C278.689 25.1895 276.191 23.9199 273.082 23.9199C269.941 23.9199 267.426 25.1895 265.538 27.7285C263.666 30.2676 262.73 33.6611 262.73 37.9092C262.73 42.1247 263.666 45.5182 265.538 48.0898C267.41 50.6452 269.876 51.9229 272.936 51.9229ZM298.155 56V19.8672H305.382V35.2236C306.814 35.126 307.848 34.7679 308.482 34.1494C309.117 33.5146 310.362 31.651 312.218 28.5586L313.609 26.2393C315.156 23.6514 316.507 21.9505 317.662 21.1367C318.818 20.3229 320.47 19.916 322.618 19.916C322.879 19.916 323.456 19.8997 324.352 19.8672V24.5303C323.033 24.5303 322.097 24.7093 321.544 25.0674C321.007 25.4092 320.307 26.2799 319.444 27.6797L318.468 29.2666L317.418 31.0488L316.368 32.7822C315.245 34.6865 313.609 36.1432 311.461 37.1523C313.463 37.6406 315.042 38.4219 316.197 39.4961C317.369 40.5703 318.704 42.499 320.201 45.2822L321.202 47.0889L322.691 49.9697C323.603 51.6787 324.783 53.6888 326.231 56H318.004C317.646 55.2676 317.41 54.7956 317.296 54.584L315.685 51.7275L313.683 48.0166C311.616 44.2894 309.801 41.5306 308.238 39.7402H305.382V56H298.155Z" fill="#EFEFEF"/>
<path d="M36.5 37.0703C36.5 37.0703 21.1016 52.5914 21.1016 60.7548C21.1016 67.5221 27.9962 73 36.5 73C45.0038 73 51.8984 67.5221 51.8984 60.7548C51.8984 52.5914 36.5 37.0703 36.5 37.0703Z" fill="#F84445"/>
<path d="M36.5 35.9297C36.5 35.9297 21.1016 20.4086 21.1016 12.2452C21.1016 5.47785 27.9962 0 36.5 0C45.0038 0 51.8984 5.47785 51.8984 12.2452C51.8984 20.4086 36.5 35.9297 36.5 35.9297Z" fill="#F84445"/>
<path d="M37.0703 36.5C37.0703 36.5 52.5914 51.8984 60.7548 51.8984C67.5221 51.8984 73 45.0038 73 36.5C73 27.9962 67.5221 21.1016 60.7548 21.1016C52.5914 21.1016 37.0703 36.5 37.0703 36.5Z" fill="#F84445"/>
<path d="M35.9297 36.5C35.9297 36.5 20.4086 51.8984 12.2452 51.8984C5.47785 51.8984 0 45.0038 0 36.5C0 27.9962 5.47785 21.1016 12.2452 21.1016C20.4086 21.1016 35.9297 36.5 35.9297 36.5Z" fill="#F84445"/>
</svg>
