<svg width="329" height="76" viewBox="0 0 329 76" fill="none" xmlns="http://www.w3.org/2000/svg">
<path d="M93.5166 43V6.86719H123.497V43H115.978V11.8232H101.036V43H93.5166ZM143.785 43.6104C139.602 43.6104 136.274 42.349 133.8 39.8262C131.342 37.2871 130.113 33.8773 130.113 29.5967C130.113 25.2673 131.35 21.8493 133.824 19.3428C136.314 16.8363 139.692 15.583 143.956 15.583C148.237 15.583 151.614 16.8363 154.088 19.3428C156.578 21.8493 157.823 25.251 157.823 29.5479C157.823 33.9424 156.578 37.3848 154.088 39.875C151.598 42.3652 148.163 43.6104 143.785 43.6104ZM143.907 39.0938C148.058 39.0938 150.133 35.9118 150.133 29.5479C150.133 26.6344 149.579 24.3314 148.473 22.6387C147.382 20.946 145.877 20.0996 143.956 20.0996C142.052 20.0996 140.546 20.946 139.439 22.6387C138.349 24.3314 137.804 26.6507 137.804 29.5967C137.804 32.5101 138.349 34.8213 139.439 36.5303C140.53 38.2393 142.019 39.0938 143.907 39.0938ZM164.464 43V16.1934H171.227V27.3262C172.659 27.3262 173.676 27.0658 174.278 26.5449C174.897 26.0241 175.833 24.6081 177.086 22.2969L177.794 21.0273C178.884 19.0091 179.918 17.707 180.895 17.1211C181.871 16.5189 183.466 16.2178 185.68 16.2178L186.754 16.1934V20.71H186.07C185.208 20.71 184.565 20.8727 184.142 21.1982C183.718 21.5075 183.189 22.248 182.555 23.4199L181.822 24.7383L181.065 26.1055C180.187 27.6842 178.852 28.7666 177.062 29.3525C178.624 29.7432 179.837 30.3291 180.699 31.1104C181.562 31.8916 182.571 33.2995 183.727 35.334L184.532 36.7744L185.899 38.9961L187.364 41.4619C187.527 41.7223 187.877 42.235 188.414 43H180.772C180.463 42.4466 180.26 42.0804 180.162 41.9014L179.039 39.8262C177.021 36.0827 175.222 33.4297 173.644 31.8672H171.227V43H164.464ZM216.368 42.0967C212.934 43.1058 209.679 43.6104 206.603 43.6104C202.127 43.6104 198.595 42.3408 196.007 39.8018C193.419 37.2627 192.125 33.7959 192.125 29.4014C192.125 25.251 193.305 21.9144 195.665 19.3916C198.041 16.8525 201.174 15.583 205.064 15.583C208.987 15.583 211.852 16.82 213.658 19.2939C215.465 21.7679 216.368 25.6823 216.368 31.0371H199.742C200.23 36.1478 203.038 38.7031 208.165 38.7031C210.59 38.7031 213.325 38.1416 216.368 37.0186V42.0967ZM199.645 26.96H209.264C209.264 22.3864 207.791 20.0996 204.845 20.0996C201.85 20.0996 200.117 22.3864 199.645 26.96ZM223.839 52.6436V16.1934H231.065V21.2471C232.921 17.471 235.842 15.583 239.83 15.583C243.053 15.583 245.584 16.763 247.423 19.123C249.278 21.4831 250.206 24.7301 250.206 28.8643C250.206 33.3564 249.164 36.9372 247.081 39.6064C244.998 42.2757 242.206 43.6104 238.707 43.6104C235.891 43.6104 233.344 42.5036 231.065 40.29V52.6436H223.839ZM231.065 35.9932C232.823 37.9463 234.695 38.9229 236.681 38.9229C238.455 38.9229 239.871 38.0684 240.929 36.3594C241.987 34.6341 242.516 32.3392 242.516 29.4746C242.516 23.9896 240.75 21.2471 237.218 21.2471C235.086 21.2471 233.035 22.6224 231.065 25.373V35.9932ZM272.838 43.9033C267.353 43.9033 262.966 42.1781 259.679 38.7275C256.391 35.277 254.747 30.679 254.747 24.9336C254.747 19.123 256.399 14.5088 259.703 11.0908C263.007 7.67285 267.467 5.96387 273.082 5.96387C278.665 5.96387 283.108 7.67285 286.412 11.0908C289.732 14.5088 291.393 19.0986 291.393 24.8604C291.393 30.7523 289.732 35.3991 286.412 38.8008C283.108 42.2025 278.583 43.9033 272.838 43.9033ZM272.936 38.9229C276.158 38.9229 278.705 37.6615 280.577 35.1387C282.465 32.5996 283.409 29.1654 283.409 24.8359C283.409 20.6367 282.465 17.2676 280.577 14.7285C278.689 12.1895 276.191 10.9199 273.082 10.9199C269.941 10.9199 267.426 12.1895 265.538 14.7285C263.666 17.2676 262.73 20.6611 262.73 24.9092C262.73 29.1247 263.666 32.5182 265.538 35.0898C267.41 37.6452 269.876 38.9229 272.936 38.9229ZM298.155 43V6.86719H305.382V22.2236C306.814 22.126 307.848 21.7679 308.482 21.1494C309.117 20.5146 310.362 18.651 312.218 15.5586L313.609 13.2393C315.156 10.6514 316.507 8.95052 317.662 8.13672C318.818 7.32292 320.47 6.91602 322.618 6.91602C322.879 6.91602 323.456 6.89974 324.352 6.86719V11.5303C323.033 11.5303 322.097 11.7093 321.544 12.0674C321.007 12.4092 320.307 13.2799 319.444 14.6797L318.468 16.2666L317.418 18.0488L316.368 19.7822C315.245 21.6865 313.609 23.1432 311.461 24.1523C313.463 24.6406 315.042 25.4219 316.197 26.4961C317.369 27.5703 318.704 29.499 320.201 32.2822L321.202 34.0889L322.691 36.9697C323.603 38.6787 324.783 40.6888 326.231 43H318.004C317.646 42.2676 317.41 41.7956 317.296 41.584L315.685 38.7275L313.683 35.0166C311.616 31.2894 309.801 28.5306 308.238 26.7402H305.382V43H298.155Z" fill="white"/>
<path d="M93.2646 71V60.8828H95.2881V68.2861L99.875 60.8828H101.741V71H99.7178V63.5898L95.1309 71H93.2646ZM104.691 71V60.8828H106.796V64.9912H110.98V60.8828H113.085V71H110.98V66.3857H106.796V71H104.691ZM119.186 71V69.5645C118.028 69.5645 117.08 69.2272 116.342 68.5527C115.604 67.8737 115.235 67.0033 115.235 65.9414C115.235 64.8796 115.604 64.0091 116.342 63.3301C117.08 62.651 118.028 62.3115 119.186 62.3115V60.8828H121.127V62.3115C122.285 62.3115 123.233 62.651 123.971 63.3301C124.709 64.0091 125.078 64.8796 125.078 65.9414C125.078 67.0033 124.709 67.8737 123.971 68.5527C123.233 69.2272 122.285 69.5645 121.127 69.5645V71H119.186ZM119.186 68.2588V63.6172C118.589 63.6172 118.103 63.8337 117.73 64.2666C117.361 64.695 117.176 65.2533 117.176 65.9414C117.176 66.6296 117.361 67.1878 117.73 67.6162C118.103 68.0446 118.589 68.2588 119.186 68.2588ZM121.127 68.2588C121.724 68.2588 122.209 68.0446 122.583 67.6162C122.957 67.1878 123.144 66.6296 123.144 65.9414C123.144 65.2533 122.957 64.695 122.583 64.2666C122.209 63.8337 121.724 63.6172 121.127 63.6172V68.2588ZM131.664 71.2529C130.128 71.2529 128.9 70.7699 127.98 69.8037C127.059 68.8376 126.599 67.5501 126.599 65.9414C126.599 64.3145 127.061 63.0225 127.987 62.0654C128.912 61.1084 130.16 60.6299 131.733 60.6299C133.296 60.6299 134.54 61.1084 135.465 62.0654C136.395 63.0225 136.86 64.3076 136.86 65.9209C136.86 67.5706 136.395 68.8717 135.465 69.8242C134.54 70.7767 133.273 71.2529 131.664 71.2529ZM131.692 69.8584C132.594 69.8584 133.307 69.5052 133.831 68.7988C134.36 68.0879 134.624 67.1263 134.624 65.9141C134.624 64.7383 134.36 63.7949 133.831 63.084C133.303 62.373 132.603 62.0176 131.733 62.0176C130.853 62.0176 130.149 62.373 129.62 63.084C129.096 63.7949 128.834 64.7451 128.834 65.9346C128.834 67.1149 129.096 68.0651 129.62 68.7852C130.144 69.5007 130.835 69.8584 131.692 69.8584ZM139.173 71V60.8828H142.701C143.931 60.8828 144.808 61.0902 145.332 61.5049C145.861 61.915 146.125 62.6032 146.125 63.5693C146.125 64.6631 145.772 65.5153 145.066 66.126C144.364 66.7321 143.38 67.0352 142.113 67.0352H141.238V71H139.173ZM141.238 65.6475H141.648C142.368 65.6475 142.935 65.4811 143.35 65.1484C143.769 64.8112 143.979 64.3555 143.979 63.7812C143.979 62.7741 143.339 62.2705 142.058 62.2705H141.238V65.6475ZM148.179 71V60.8828H150.968L153.402 67.999L155.911 60.8828H158.358V71H156.416V63.3643L153.949 70.3232H152.253L149.833 63.2617V71H148.179ZM160.207 71L164.144 60.8828H166.249L170.187 71H168.027L166.974 68.2998H162.791L161.738 71H160.207ZM163.31 66.9531H166.455L164.882 62.9199L163.31 66.9531ZM172.043 71V60.8828H174.148V69.5645H178.332V60.8828H180.437V69.5645H181.784V73.0234H179.76V71H172.043ZM183.81 71V60.8828H185.834V68.2861L190.421 60.8828H192.287V71H190.263V63.5898L185.676 71H183.81ZM199.673 71.2529C198.137 71.2529 196.909 70.7699 195.988 69.8037C195.067 68.8376 194.607 67.5501 194.607 65.9414C194.607 64.3145 195.07 63.0225 195.995 62.0654C196.92 61.1084 198.169 60.6299 199.741 60.6299C201.304 60.6299 202.548 61.1084 203.473 62.0654C204.403 63.0225 204.868 64.3076 204.868 65.9209C204.868 67.5706 204.403 68.8717 203.473 69.8242C202.548 70.7767 201.281 71.2529 199.673 71.2529ZM199.7 69.8584C200.602 69.8584 201.315 69.5052 201.84 68.7988C202.368 68.0879 202.633 67.1263 202.633 65.9141C202.633 64.7383 202.368 63.7949 201.84 63.084C201.311 62.373 200.611 62.0176 199.741 62.0176C198.861 62.0176 198.157 62.373 197.629 63.084C197.105 63.7949 196.842 64.7451 196.842 65.9346C196.842 67.1149 197.105 68.0651 197.629 68.7852C198.153 69.5007 198.843 69.8584 199.7 69.8584ZM207.181 71V60.8828H209.287V64.9912H213.471V60.8828H215.576V71H213.471V66.3857H209.287V71H207.181ZM218.525 71V60.8828H220.631V64.9912H224.814V60.8828H226.92V71H224.814V66.3857H220.631V71H218.525ZM237.881 71V60.8828H239.945V71H237.881ZM229.869 71V60.8828H231.934V65.1074H232.61C234.114 65.1074 235.144 65.2806 235.7 65.627C236.479 66.11 236.869 66.8688 236.869 67.9033C236.869 69.0381 236.425 69.8812 235.536 70.4326C234.93 70.8109 233.852 71 232.303 71H229.869ZM231.934 69.6943H232.556C233.303 69.6943 233.864 69.5531 234.237 69.2705C234.616 68.9834 234.805 68.555 234.805 67.9854C234.805 67.4613 234.618 67.0693 234.244 66.8096C233.875 66.5452 233.319 66.4131 232.576 66.4131H231.934V69.6943ZM244.74 57.8408H246.176V58.0049C246.176 58.3877 246.244 58.6748 246.381 58.8662C246.522 59.0531 246.734 59.1465 247.017 59.1465C247.299 59.1465 247.511 59.0508 247.652 58.8594C247.794 58.668 247.864 58.3786 247.864 57.9912L247.857 57.8408H249.293C249.293 58.5745 249.102 59.1237 248.719 59.4883C248.341 59.8529 247.773 60.0352 247.017 60.0352C246.256 60.0352 245.686 59.8529 245.308 59.4883C244.929 59.1237 244.74 58.5745 244.74 57.8408ZM242.895 71V60.8828H244.918V68.2861L249.505 60.8828H251.371V71H249.348V63.5898L244.761 71H242.895ZM259.362 71V60.8828H267.756V71H265.651V62.2705H261.467V71H259.362ZM269.598 71L273.535 60.8828H275.641L279.578 71H277.418L276.366 68.2998H272.182L271.129 71H269.598ZM272.701 66.9531H275.846L274.274 62.9199L272.701 66.9531ZM281.434 71V60.8828H284.961C286.192 60.8828 287.069 61.0902 287.593 61.5049C288.122 61.915 288.386 62.6032 288.386 63.5693C288.386 64.6631 288.033 65.5153 287.327 66.126C286.625 66.7321 285.64 67.0352 284.373 67.0352H283.498V71H281.434ZM283.498 65.6475H283.909C284.629 65.6475 285.196 65.4811 285.611 65.1484C286.03 64.8112 286.24 64.3555 286.24 63.7812C286.24 62.7741 285.599 62.2705 284.319 62.2705H283.498V65.6475ZM292.949 71V62.2705H289.326V60.8828H298.684V62.2705H295.061V71H292.949ZM300.526 71V60.8828H302.631V64.9912H306.815V60.8828H308.92V71H306.815V66.3857H302.631V71H300.526ZM311.87 71V60.8828H318.193V62.2705H313.975V65.0938H317.434V66.4473H313.975V69.5645H318.514V71H311.87ZM320.698 71V60.8828H324.225C325.456 60.8828 326.333 61.0902 326.857 61.5049C327.386 61.915 327.65 62.6032 327.65 63.5693C327.65 64.6631 327.297 65.5153 326.591 66.126C325.889 66.7321 324.904 67.0352 323.637 67.0352H322.762V71H320.698ZM322.762 65.6475H323.173C323.893 65.6475 324.46 65.4811 324.875 65.1484C325.294 64.8112 325.504 64.3555 325.504 63.7812C325.504 62.7741 324.863 62.2705 323.583 62.2705H322.762V65.6475Z" fill="#959595"/>
<path d="M36.5 40.0703C36.5 40.0703 21.1016 55.5914 21.1016 63.7548C21.1016 70.5221 27.9962 76 36.5 76C45.0038 76 51.8984 70.5221 51.8984 63.7548C51.8984 55.5914 36.5 40.0703 36.5 40.0703Z" fill="#E5534D"/>
<path d="M36.5 38.9297C36.5 38.9297 21.1016 23.4086 21.1016 15.2452C21.1016 8.47785 27.9962 3 36.5 3C45.0038 3 51.8984 8.47785 51.8984 15.2452C51.8984 23.4086 36.5 38.9297 36.5 38.9297Z" fill="#E5534D"/>
<path d="M37.0703 39.5C37.0703 39.5 52.5914 54.8984 60.7548 54.8984C67.5221 54.8984 73 48.0038 73 39.5C73 30.9962 67.5221 24.1016 60.7548 24.1016C52.5914 24.1016 37.0703 39.5 37.0703 39.5Z" fill="#E5534D"/>
<path d="M35.9297 39.5C35.9297 39.5 20.4086 54.8984 12.2452 54.8984C5.47785 54.8984 0 48.0038 0 39.5C0 30.9962 5.47785 24.1016 12.2452 24.1016C20.4086 24.1016 35.9297 39.5 35.9297 39.5Z" fill="#E5534D"/>
</svg>
