<svg width="332" height="108" viewBox="0 0 332 108" fill="none" xmlns="http://www.w3.org/2000/svg">
<path d="M96.5166 55V18.8672H126.497V55H118.978V23.8232H104.036V55H96.5166ZM146.785 55.6104C142.602 55.6104 139.274 54.349 136.8 51.8262C134.342 49.2871 133.113 45.8773 133.113 41.5967C133.113 37.2673 134.35 33.8493 136.824 31.3428C139.314 28.8363 142.692 27.583 146.956 27.583C151.237 27.583 154.614 28.8363 157.088 31.3428C159.578 33.8493 160.823 37.251 160.823 41.5479C160.823 45.9424 159.578 49.3848 157.088 51.875C154.598 54.3652 151.163 55.6104 146.785 55.6104ZM146.907 51.0938C151.058 51.0938 153.133 47.9118 153.133 41.5479C153.133 38.6344 152.579 36.3314 151.473 34.6387C150.382 32.946 148.877 32.0996 146.956 32.0996C145.052 32.0996 143.546 32.946 142.439 34.6387C141.349 36.3314 140.804 38.6507 140.804 41.5967C140.804 44.5101 141.349 46.8213 142.439 48.5303C143.53 50.2393 145.019 51.0938 146.907 51.0938ZM167.464 55V28.1934H174.227V39.3262C175.659 39.3262 176.676 39.0658 177.278 38.5449C177.897 38.0241 178.833 36.6081 180.086 34.2969L180.794 33.0273C181.884 31.0091 182.918 29.707 183.895 29.1211C184.871 28.5189 186.466 28.2178 188.68 28.2178L189.754 28.1934V32.71H189.07C188.208 32.71 187.565 32.8727 187.142 33.1982C186.718 33.5075 186.189 34.248 185.555 35.4199L184.822 36.7383L184.065 38.1055C183.187 39.6842 181.852 40.7666 180.062 41.3525C181.624 41.7432 182.837 42.3291 183.699 43.1104C184.562 43.8916 185.571 45.2995 186.727 47.334L187.532 48.7744L188.899 50.9961L190.364 53.4619C190.527 53.7223 190.877 54.235 191.414 55H183.772C183.463 54.4466 183.26 54.0804 183.162 53.9014L182.039 51.8262C180.021 48.0827 178.222 45.4297 176.644 43.8672H174.227V55H167.464ZM219.368 54.0967C215.934 55.1058 212.679 55.6104 209.603 55.6104C205.127 55.6104 201.595 54.3408 199.007 51.8018C196.419 49.2627 195.125 45.7959 195.125 41.4014C195.125 37.251 196.305 33.9144 198.665 31.3916C201.041 28.8525 204.174 27.583 208.064 27.583C211.987 27.583 214.852 28.82 216.658 31.2939C218.465 33.7679 219.368 37.6823 219.368 43.0371H202.742C203.23 48.1478 206.038 50.7031 211.165 50.7031C213.59 50.7031 216.325 50.1416 219.368 49.0186V54.0967ZM202.645 38.96H212.264C212.264 34.3864 210.791 32.0996 207.845 32.0996C204.85 32.0996 203.117 34.3864 202.645 38.96ZM226.839 64.6436V28.1934H234.065V33.2471C235.921 29.471 238.842 27.583 242.83 27.583C246.053 27.583 248.584 28.763 250.423 31.123C252.278 33.4831 253.206 36.7301 253.206 40.8643C253.206 45.3564 252.164 48.9372 250.081 51.6064C247.998 54.2757 245.206 55.6104 241.707 55.6104C238.891 55.6104 236.344 54.5036 234.065 52.29V64.6436H226.839ZM234.065 47.9932C235.823 49.9463 237.695 50.9229 239.681 50.9229C241.455 50.9229 242.871 50.0684 243.929 48.3594C244.987 46.6341 245.516 44.3392 245.516 41.4746C245.516 35.9896 243.75 33.2471 240.218 33.2471C238.086 33.2471 236.035 34.6224 234.065 37.373V47.9932ZM275.838 55.9033C270.353 55.9033 265.966 54.1781 262.679 50.7275C259.391 47.277 257.747 42.679 257.747 36.9336C257.747 31.123 259.399 26.5088 262.703 23.0908C266.007 19.6729 270.467 17.9639 276.082 17.9639C281.665 17.9639 286.108 19.6729 289.412 23.0908C292.732 26.5088 294.393 31.0986 294.393 36.8604C294.393 42.7523 292.732 47.3991 289.412 50.8008C286.108 54.2025 281.583 55.9033 275.838 55.9033ZM275.936 50.9229C279.158 50.9229 281.705 49.6615 283.577 47.1387C285.465 44.5996 286.409 41.1654 286.409 36.8359C286.409 32.6367 285.465 29.2676 283.577 26.7285C281.689 24.1895 279.191 22.9199 276.082 22.9199C272.941 22.9199 270.426 24.1895 268.538 26.7285C266.666 29.2676 265.73 32.6611 265.73 36.9092C265.73 41.1247 266.666 44.5182 268.538 47.0898C270.41 49.6452 272.876 50.9229 275.936 50.9229ZM301.155 55V18.8672H308.382V34.2236C309.814 34.126 310.848 33.7679 311.482 33.1494C312.117 32.5146 313.362 30.651 315.218 27.5586L316.609 25.2393C318.156 22.6514 319.507 20.9505 320.662 20.1367C321.818 19.3229 323.47 18.916 325.618 18.916C325.879 18.916 326.456 18.8997 327.352 18.8672V23.5303C326.033 23.5303 325.097 23.7093 324.544 24.0674C324.007 24.4092 323.307 25.2799 322.444 26.6797L321.468 28.2666L320.418 30.0488L319.368 31.7822C318.245 33.6865 316.609 35.1432 314.461 36.1523C316.463 36.6406 318.042 37.4219 319.197 38.4961C320.369 39.5703 321.704 41.499 323.201 44.2822L324.202 46.0889L325.691 48.9697C326.603 50.6787 327.783 52.6888 329.231 55H321.004C320.646 54.2676 320.41 53.7956 320.296 53.584L318.685 50.7275L316.683 47.0166C314.616 43.2894 312.801 40.5306 311.238 38.7402H308.382V55H301.155Z" fill="white"/>
<path d="M39.5 37.0703C39.5 37.0703 24.1016 52.5914 24.1016 60.7548C24.1016 67.5221 30.9962 73 39.5 73C48.0038 73 54.8984 67.5221 54.8984 60.7548C54.8984 52.5914 39.5 37.0703 39.5 37.0703Z" fill="#E5534D"/>
<path d="M39.5 35.9297C39.5 35.9297 24.1016 20.4086 24.1016 12.2452C24.1016 5.47785 30.9962 0 39.5 0C48.0038 0 54.8984 5.47785 54.8984 12.2452C54.8984 20.4086 39.5 35.9297 39.5 35.9297Z" fill="#E5534D"/>
<path d="M40.0703 36.5C40.0703 36.5 55.5914 51.8984 63.7548 51.8984C70.5221 51.8984 76 45.0038 76 36.5C76 27.9962 70.5221 21.1016 63.7548 21.1016C55.5914 21.1016 40.0703 36.5 40.0703 36.5Z" fill="#E5534D"/>
<path d="M38.9297 36.5C38.9297 36.5 23.4086 51.8984 15.2452 51.8984C8.47785 51.8984 3 45.0038 3 36.5C3 27.9962 8.47785 21.1016 15.2452 21.1016C23.4086 21.1016 38.9297 36.5 38.9297 36.5Z" fill="#E5534D"/>
<path d="M2.0686 103V86.4512H5.37837V98.5609L12.8812 86.4512H15.9338V103H12.6241V90.8791L5.12119 103H2.0686ZM20.071 103V90.7226H23.3808V95.4636H27.7976V90.7226H31.1073V103H27.7976V97.5322H23.3808V103H20.071ZM41.5398 107.417V102.038C40.8465 102.769 39.9855 103.134 38.9568 103.134C37.6225 103.134 36.523 102.549 35.6583 101.379C34.7935 100.201 34.3612 98.7063 34.3612 96.8948C34.3612 95.0759 34.801 93.5701 35.6806 92.3774C36.5677 91.1773 37.6821 90.5772 39.0239 90.5772C40.157 90.5772 40.9956 90.9462 41.5398 91.6842V85.3442H44.57V91.6842C45.1067 90.9462 45.9416 90.5772 47.0747 90.5772C48.424 90.5772 49.5384 91.1773 50.418 92.3774C51.3051 93.5701 51.7486 95.0759 51.7486 96.8948C51.7486 98.7063 51.3163 100.201 50.4516 101.379C49.5869 102.549 48.4836 103.134 47.1418 103.134C46.1131 103.134 45.2558 102.769 44.57 102.038V107.417H41.5398ZM41.5398 93.395C41.0105 93.0372 40.5111 92.8583 40.0415 92.8583C39.3333 92.8583 38.7369 93.2496 38.2524 94.0323C37.7753 94.8076 37.5368 95.7655 37.5368 96.906C37.5368 98.0913 37.7604 99.0492 38.2077 99.7797C38.6624 100.503 39.2625 100.864 40.0079 100.864C40.4403 100.864 40.9509 100.67 41.5398 100.283V93.395ZM44.57 93.395V100.283C45.1589 100.67 45.6695 100.864 46.1019 100.864C46.8399 100.864 47.4362 100.503 47.891 99.7797C48.3457 99.0492 48.573 98.0913 48.573 96.906C48.573 95.7655 48.3308 94.8076 47.8462 94.0323C47.3692 93.2496 46.7728 92.8583 46.0572 92.8583C45.595 92.8583 45.0993 93.0372 44.57 93.395ZM60.1572 103.28C58.2414 103.28 56.717 102.702 55.5839 101.546C54.4583 100.383 53.8955 98.8218 53.8955 96.8613C53.8955 94.8784 54.462 93.313 55.5951 92.165C56.7356 91.017 58.2824 90.443 60.2355 90.443C62.196 90.443 63.7428 91.017 64.8759 92.165C66.0164 93.313 66.5867 94.8709 66.5867 96.8389C66.5867 98.8516 66.0164 100.428 64.8759 101.569C63.7353 102.709 62.1625 103.28 60.1572 103.28ZM60.2131 101.211C62.114 101.211 63.0644 99.7536 63.0644 96.8389C63.0644 95.5046 62.811 94.4498 62.3041 93.6745C61.8047 92.8993 61.1151 92.5116 60.2355 92.5116C59.3633 92.5116 58.6738 92.8993 58.1669 93.6745C57.6674 94.4498 57.4177 95.512 57.4177 96.8613C57.4177 98.1956 57.6674 99.2542 58.1669 100.037C58.6663 100.82 59.3484 101.211 60.2131 101.211ZM69.6281 107.417V90.7226H72.9378V93.0372C73.7876 91.3077 75.1257 90.443 76.952 90.443C78.428 90.443 79.5872 90.9835 80.4295 92.0644C81.2793 93.1452 81.7042 94.6324 81.7042 96.5258C81.7042 98.5833 81.2272 100.223 80.273 101.446C79.3188 102.668 78.0404 103.28 76.4377 103.28C75.1481 103.28 73.9815 102.773 72.9378 101.759V107.417H69.6281ZM72.9378 99.7909C73.7429 100.685 74.6002 101.133 75.5096 101.133C76.3222 101.133 76.9707 100.741 77.4552 99.9586C77.9398 99.1684 78.182 98.1174 78.182 96.8054C78.182 94.2932 77.3732 93.0372 75.7556 93.0372C74.7791 93.0372 73.8398 93.6671 72.9378 94.9269V99.7909ZM84.8127 103V90.7226H87.9995L91.3764 99.2094H91.3987L94.496 90.7226H97.8505V103H94.8091V94.5355H94.7979L91.9466 102.173H89.8221L87.1721 95.307H87.1609V103H84.8127ZM108.003 101.681C106.9 102.747 105.719 103.28 104.459 103.28C103.385 103.28 102.513 102.952 101.842 102.296C101.171 101.64 100.836 100.79 100.836 99.7461C100.836 98.3894 101.376 97.3458 102.457 96.6153C103.546 95.8773 105.1 95.5083 107.12 95.5083H108.003V94.3901C108.003 93.1154 107.277 92.4781 105.823 92.4781C104.533 92.4781 103.229 92.8433 101.909 93.5739V91.2928C103.408 90.7263 104.891 90.443 106.36 90.443C109.573 90.443 111.179 91.7215 111.179 94.2783V99.7126C111.179 100.674 111.488 101.155 112.107 101.155C112.219 101.155 112.364 101.14 112.543 101.11L112.621 102.966C111.921 103.175 111.302 103.28 110.765 103.28C109.409 103.28 108.536 102.747 108.149 101.681H108.003ZM108.003 99.9027V97.4092H107.221C105.081 97.4092 104.012 98.0801 104.012 99.4219C104.012 99.8766 104.164 100.26 104.47 100.574C104.783 100.879 105.167 101.032 105.622 101.032C106.397 101.032 107.191 100.656 108.003 99.9027ZM115.45 103V90.7226H118.771V100.797H123.177V90.7226H126.487V100.797H128.555V105.762H125.391V103H115.45ZM131.463 103V90.7226H134.571V99.1647L139.469 90.7226H142.778V103H139.67V94.5579L134.772 103H131.463ZM152.07 103.28C150.155 103.28 148.63 102.702 147.497 101.546C146.371 100.383 145.809 98.8218 145.809 96.8613C145.809 94.8784 146.375 93.313 147.508 92.165C148.649 91.017 150.196 90.443 152.149 90.443C154.109 90.443 155.656 91.017 156.789 92.165C157.929 93.313 158.5 94.8709 158.5 96.8389C158.5 98.8516 157.929 100.428 156.789 101.569C155.648 102.709 154.076 103.28 152.07 103.28ZM152.126 101.211C154.027 101.211 154.978 99.7536 154.978 96.8389C154.978 95.5046 154.724 94.4498 154.217 93.6745C153.718 92.8993 153.028 92.5116 152.149 92.5116C151.276 92.5116 150.587 92.8993 150.08 93.6745C149.581 94.4498 149.331 95.512 149.331 96.8613C149.331 98.1956 149.581 99.2542 150.08 100.037C150.579 100.82 151.262 101.211 152.126 101.211ZM161.541 103V90.7226H164.851V95.4636H169.268V90.7226H172.577V103H169.268V97.5322H164.851V103H161.541ZM176.726 103V90.7226H180.036V95.4636H184.452V90.7226H187.762V103H184.452V97.5322H180.036V103H176.726ZM191.91 103V90.7226H195.153V95.2399H196.45C198.396 95.2399 199.805 95.5381 200.677 96.1345C201.549 96.7308 201.985 97.6999 201.985 99.0417C201.985 100.421 201.512 101.427 200.565 102.061C199.626 102.687 198.124 103 196.059 103H191.91ZM195.153 100.931H196.126C196.998 100.931 197.65 100.779 198.083 100.473C198.523 100.16 198.742 99.6902 198.742 99.0641C198.742 98.4826 198.526 98.0465 198.094 97.7558C197.669 97.4576 197.028 97.3085 196.171 97.3085H195.153V100.931ZM203.64 103V90.7226H206.872V103H203.64ZM212.943 85.0646H215.291V85.333C215.291 85.9592 215.403 86.4288 215.627 86.7419C215.858 87.0475 216.204 87.2003 216.667 87.2003C217.129 87.2003 217.475 87.0438 217.707 86.7307C217.938 86.4176 218.053 85.9443 218.053 85.3106L218.042 85.0646H220.39C220.39 86.2648 220.077 87.1631 219.451 87.7594C218.832 88.3558 217.904 88.654 216.667 88.654C215.422 88.654 214.49 88.3558 213.871 87.7594C213.253 87.1631 212.943 86.2648 212.943 85.0646ZM211.009 103V90.7226H214.117V99.1647L219.015 90.7226H222.325V103H219.216V94.5579L214.318 103H211.009ZM234.021 103V90.7226H245.057V103H241.747V92.9253H237.33V103H234.021ZM255.221 101.681C254.118 102.747 252.936 103.28 251.676 103.28C250.603 103.28 249.731 102.952 249.06 102.296C248.389 101.64 248.054 100.79 248.054 99.7461C248.054 98.3894 248.594 97.3458 249.675 96.6153C250.763 95.8773 252.317 95.5083 254.338 95.5083H255.221V94.3901C255.221 93.1154 254.494 92.4781 253.041 92.4781C251.751 92.4781 250.446 92.8433 249.127 93.5739V91.2928C250.625 90.7263 252.109 90.443 253.577 90.443C256.79 90.443 258.397 91.7215 258.397 94.2783V99.7126C258.397 100.674 258.706 101.155 259.325 101.155C259.436 101.155 259.582 101.14 259.761 101.11L259.839 102.966C259.138 103.175 258.52 103.28 257.983 103.28C256.626 103.28 255.754 102.747 255.366 101.681H255.221ZM255.221 99.9027V97.4092H254.438C252.299 97.4092 251.229 98.0801 251.229 99.4219C251.229 99.8766 251.382 100.26 251.688 100.574C252.001 100.879 252.385 101.032 252.839 101.032C253.615 101.032 254.408 100.656 255.221 99.9027ZM262.668 107.417V90.7226H265.978V93.0372C266.827 91.3077 268.166 90.443 269.992 90.443C271.468 90.443 272.627 90.9835 273.469 92.0644C274.319 93.1452 274.744 94.6324 274.744 96.5258C274.744 98.5833 274.267 100.223 273.313 101.446C272.359 102.668 271.08 103.28 269.478 103.28C268.188 103.28 267.021 102.773 265.978 101.759V107.417H262.668ZM265.978 99.7909C266.783 100.685 267.64 101.133 268.549 101.133C269.362 101.133 270.011 100.741 270.495 99.9586C270.98 99.1684 271.222 98.1174 271.222 96.8054C271.222 94.2932 270.413 93.0372 268.795 93.0372C267.819 93.0372 266.88 93.6671 265.978 94.9269V99.7909ZM279.843 103V92.9253H275.985V90.7226H287.022V92.9253H283.164V103H279.843ZM289.303 103V90.7226H292.612V95.4636H297.029V90.7226H300.339V103H297.029V97.5322H292.612V103H289.303ZM314.484 102.586C312.911 103.048 311.42 103.28 310.011 103.28C307.961 103.28 306.343 102.698 305.158 101.535C303.973 100.372 303.38 98.7845 303.38 96.7718C303.38 94.8709 303.921 93.3428 305.002 92.1874C306.09 91.0245 307.525 90.443 309.307 90.443C311.103 90.443 312.415 91.0096 313.242 92.1426C314.07 93.2757 314.484 95.0685 314.484 97.521H306.869C307.093 99.8617 308.378 101.032 310.727 101.032C311.837 101.032 313.09 100.775 314.484 100.26V102.586ZM306.824 95.6537H311.23C311.23 93.559 310.555 92.5116 309.206 92.5116C307.834 92.5116 307.04 93.559 306.824 95.6537ZM317.905 107.417V90.7226H321.215V93.0372C322.065 91.3077 323.403 90.443 325.229 90.443C326.705 90.443 327.864 90.9835 328.707 92.0644C329.556 93.1452 329.981 94.6324 329.981 96.5258C329.981 98.5833 329.504 100.223 328.55 101.446C327.596 102.668 326.318 103.28 324.715 103.28C323.425 103.28 322.259 102.773 321.215 101.759V107.417H317.905ZM321.215 99.7909C322.02 100.685 322.877 101.133 323.787 101.133C324.599 101.133 325.248 100.741 325.732 99.9586C326.217 99.1684 326.459 98.1174 326.459 96.8054C326.459 94.2932 325.65 93.0372 324.033 93.0372C323.056 93.0372 322.117 93.6671 321.215 94.9269V99.7909Z" fill="#858585"/>
</svg>
